<svg width="28" height="28" viewBox="0 0 28 28" fill="none" xmlns="http://www.w3.org/2000/svg">
<path d="M9.10354 6.68616C9.79071 6.68616 10.409 6.74566 10.976 6.86699C11.5395 6.98716 12.0202 7.18549 12.4262 7.45966C12.8264 7.73382 13.139 8.09782 13.3642 8.55516C13.5824 9.00666 13.6909 9.57132 13.6909 10.2387C13.6909 10.962 13.5275 11.5663 13.1997 12.0482C12.8695 12.5312 12.383 12.9267 11.7344 13.2323C12.6175 13.4878 13.272 13.9347 13.706 14.5693C14.1424 15.2098 14.3559 15.9763 14.3559 16.8747C14.3559 17.6038 14.217 18.2303 13.9382 18.7565C13.6695 19.2748 13.2797 19.7207 12.8019 20.0562C12.3069 20.4008 11.7541 20.6537 11.1697 20.8028C10.557 20.9637 9.92601 21.0444 9.29254 21.0432H2.33337V6.68616H9.10354ZM8.69404 12.4868C9.25404 12.4868 9.71837 12.3538 10.0847 12.0843C10.4487 11.8183 10.6249 11.3797 10.6249 10.7788C10.6249 10.4452 10.5654 10.1698 10.4487 9.95399C10.335 9.74635 10.1668 9.57369 9.96221 9.45466C9.74804 9.32764 9.51168 9.24252 9.26571 9.20382C8.9976 9.15382 8.72526 9.12999 8.45254 9.13266H5.49504V12.4868H8.69404ZM8.87021 18.599C9.18171 18.599 9.47804 18.5722 9.75687 18.5092C10.038 18.4485 10.2877 18.3505 10.5 18.2047C10.7124 18.0647 10.8874 17.8745 11.0134 17.6318C11.1405 17.3915 11.2024 17.0777 11.2024 16.7008C11.2024 15.9612 10.9935 15.435 10.5805 15.1165C10.1664 14.8015 9.61104 14.6452 8.93087 14.6452H5.49504V18.6002H8.87021V18.599ZM18.8627 18.5512C19.2909 18.9688 19.908 19.1788 20.7107 19.1788C21.2859 19.1788 21.7829 19.033 22.2017 18.7437C22.6147 18.4532 22.8667 18.1428 22.9635 17.822H25.4777C25.074 19.0727 24.4615 19.9663 23.6239 20.5042C22.7967 21.0443 21.7899 21.3127 20.6139 21.3127C19.7949 21.3127 19.0575 21.1808 18.3972 20.9195C17.7634 20.6727 17.1906 20.2913 16.7184 19.8018C16.2539 19.3009 15.8949 18.7117 15.6625 18.0693C15.4072 17.3589 15.2807 16.6087 15.2892 15.8538C15.2892 15.0768 15.4187 14.35 15.673 13.6792C15.9145 13.0307 16.2852 12.4381 16.7627 11.9373C17.2352 11.4473 17.7952 11.0612 18.4474 10.7777C19.1332 10.4892 19.8711 10.3455 20.615 10.3553C21.4947 10.3553 22.2635 10.5257 22.9239 10.8687C23.5642 11.1961 24.1195 11.6682 24.5455 12.2477C24.969 12.8228 25.2712 13.482 25.459 14.2205C25.6469 14.9578 25.7122 15.7278 25.6585 16.534H18.1557C18.1569 17.3553 18.4334 18.1335 18.8627 18.5512ZM22.1434 13.09C21.8039 12.7143 21.2299 12.5113 20.5275 12.5113C20.0714 12.5113 19.6945 12.5872 19.3912 12.7435C19.1139 12.8836 18.8678 13.0784 18.6679 13.3163C18.4923 13.5323 18.3621 13.7815 18.2852 14.049C18.2179 14.272 18.1745 14.5016 18.1557 14.7338H22.8014C22.7337 14.0058 22.484 13.468 22.1434 13.09ZM17.5724 7.64982H23.3929V9.06732H17.5724V7.64982Z" fill="#9D9D9D"/>
</svg>
