<svg width="28" height="28" viewBox="0 0 28 28" fill="none" xmlns="http://www.w3.org/2000/svg">
<path d="M24.1034 8.14334C23.0853 6.37902 21.6201 4.91426 19.8555 3.89668C18.067 2.85484 16.1152 2.33334 14 2.33334C11.8849 2.33334 9.93304 2.85484 8.14337 3.89668C6.35487 4.93851 4.93854 6.35484 3.89671 8.14334C2.85487 9.93184 2.33337 11.8848 2.33337 14C2.33337 16.1152 2.85371 18.0682 3.89671 19.8567C4.91442 21.6213 6.37967 23.0861 8.14454 24.1033C9.93304 25.1452 11.8849 25.6667 14 25.6667C16.1152 25.6667 18.067 25.1452 19.8567 24.1033C21.6213 23.0858 23.0865 21.621 24.1045 19.8567C25.1464 18.0682 25.6667 16.1152 25.6667 14C25.6667 11.8848 25.1464 9.93184 24.1034 8.14334ZM14 4.27001C16.3334 4.27001 18.4007 5.01668 20.2067 6.50884C19.1334 7.87851 17.5397 9.00551 15.4234 9.89218C14.2544 7.77701 12.9874 6.01068 11.6189 4.59551C12.3945 4.38106 13.1953 4.27158 14 4.27001ZM6.42837 7.93334C7.28149 6.85001 8.36092 5.96608 9.59121 5.34334C11.0052 6.74451 12.3037 8.49334 13.4879 10.5933C11.1545 11.2933 8.68821 11.6433 6.09004 11.6433C5.42154 11.6433 4.91637 11.6282 4.57337 11.5967C4.93093 10.2601 5.56265 9.01258 6.42837 7.93334ZM4.27004 14C4.27004 13.937 4.27354 13.86 4.28171 13.7667C4.28987 13.6733 4.29337 13.5963 4.29337 13.5333C4.58971 13.5497 5.04121 13.5567 5.64787 13.5567C8.75821 13.5567 11.6515 13.1285 14.3267 12.2733C14.5449 12.7085 14.7712 13.1985 15.0034 13.7433C13.4634 14.0852 11.8837 14.917 10.2655 16.24C8.64737 17.563 7.46671 18.9548 6.72004 20.4167C5.08671 18.5652 4.27004 16.4267 4.27004 14ZM14 23.73C11.7904 23.73 9.80704 23.0452 8.04887 21.6778C8.75004 20.293 9.82687 18.9688 11.2817 17.71C12.7354 16.45 14.1785 15.6648 15.61 15.3533C16.513 17.8488 17.1238 20.4406 17.43 23.0767C16.3367 23.5039 15.1739 23.7254 14 23.73ZM22.26 19.11C21.4964 20.3403 20.4681 21.3849 19.25 22.1678C18.97 19.7412 18.4334 17.3763 17.6412 15.0733C18.7285 14.9963 19.7004 14.9567 20.5579 14.9567C21.49 14.9567 22.5249 14.9963 23.66 15.0733C23.5077 16.5082 23.0288 17.889 22.26 19.11ZM20.8134 13.2767C19.46 13.2767 18.2082 13.3315 17.0567 13.44C16.8128 12.8016 16.5482 12.1713 16.2634 11.55C18.6737 10.493 20.384 9.20968 21.3955 7.70001C22.7955 9.34968 23.5585 11.2315 23.6822 13.3467C22.7349 13.3 21.7782 13.2767 20.8134 13.2767Z" fill="#9D9D9D"/>
</svg>
