<svg width="58" height="58" viewBox="0 0 58 58" fill="none" xmlns="http://www.w3.org/2000/svg">
<path d="M52.2822 26.9168C52.2495 26.6834 52.2011 26.4525 52.1372 26.2257L51.6853 26.796C51.6069 25.7536 51.4223 24.722 51.1343 23.7172C50.7735 22.4579 50.2954 21.2354 49.7061 20.0656C49.3465 19.2827 48.9093 18.5378 48.4011 17.8422C48.1376 17.4314 47.9105 17.1269 47.867 17.0641C46.9921 15.6407 46.0134 14.7755 44.8486 13.1467C44.1105 11.8957 43.6069 10.5207 43.3623 9.08907C43.036 9.94798 42.7909 10.8355 42.63 11.7402C41.4628 10.5584 40.4236 9.69565 39.8074 9.13016C36.7455 6.27124 37.1176 4.80432 37.1176 4.80432C37.1176 4.80432 31.4046 11.1722 33.8745 17.7987C34.7304 20.0545 36.2086 22.0213 38.1375 23.4707C40.5275 25.4354 43.0965 26.9797 44.4426 30.9647C43.3621 28.8712 41.7149 27.1235 39.689 25.9212C40.3004 27.376 40.6073 28.8985 40.5856 30.4742C40.5846 31.8931 40.304 33.298 39.7597 34.6085C39.2154 35.9189 38.4182 37.1093 37.4136 38.1114C36.409 39.1136 35.2167 39.9079 33.9049 40.4489C32.5931 40.9899 31.1875 41.2671 29.7685 41.2646C28.9676 41.2692 28.1687 41.1808 27.3881 41.0012C26.4573 40.8248 25.5565 40.5164 24.7129 40.0852C23.4444 39.332 22.3465 38.323 21.4891 37.1224V37.1055C21.5472 37.1312 21.608 37.1506 21.6703 37.1635C22.1222 37.3254 22.5693 37.4487 23.0406 37.5332C24.87 37.9167 26.7747 37.6936 28.466 36.8977C30.177 35.9407 31.2185 35.2422 32.0523 35.5105C32.8933 35.7739 33.5216 34.9788 32.9537 34.1451C32.454 33.498 31.7867 33.0001 31.0242 32.7053C30.2616 32.4105 29.4329 32.3301 28.6279 32.4727C26.9096 32.7168 25.3412 33.9203 23.1179 32.7555C22.956 32.6782 22.8351 32.596 22.6926 32.5114C22.5476 32.4099 23.1807 32.6347 23.0164 32.5332C22.5254 32.2925 22.055 32.0121 21.6099 31.6946C21.5881 31.6728 21.9603 31.7985 21.9144 31.7743C21.3327 31.38 20.8336 30.876 20.4451 30.2905C20.2526 29.9312 20.144 29.5331 20.1272 29.1259C20.1105 28.7186 20.1861 28.3129 20.3484 27.9391C20.557 27.5645 20.8783 27.2651 21.2667 27.0836L21.7307 27.3252C21.7307 27.3252 21.5881 27.0836 21.5253 26.9603C21.5495 26.941 21.5712 26.9603 21.6099 26.941C21.8564 27.0425 22.405 27.3252 22.7095 27.5113C22.9135 27.6183 23.0892 27.7724 23.2218 27.9608C23.2218 27.9608 23.3257 27.9197 23.2435 27.6998C23.1442 27.4327 22.9555 27.2081 22.7095 27.0642H22.753C22.9777 27.1875 23.1831 27.3107 23.3837 27.4678C23.5674 27.0183 23.6713 26.5785 23.6544 26.1072C23.6688 25.8508 23.6335 25.5939 23.5505 25.3508C23.4659 25.1889 23.5915 25.1261 23.7317 25.2904C23.709 25.1626 23.6674 25.0388 23.6085 24.9231C23.6085 24.9231 23.6906 24.7998 23.7317 24.7732C23.8356 24.6766 23.9347 24.5751 24.0604 24.5147C24.7685 24.0676 25.508 23.6761 26.2837 23.3692C26.7063 23.2035 27.1216 23.0197 27.5283 22.8182C27.6902 22.7167 27.8352 22.6152 27.9778 22.4895C28.5095 22.0424 28.8575 21.431 28.9759 20.7543C29 20.6577 29 20.5755 29 20.4957V20.329C28.9179 19.981 28.3258 19.7369 25.247 19.43C24.7152 19.3487 24.2204 19.1086 23.8275 18.7412C23.4346 18.3738 23.162 17.8961 23.0454 17.371V17.3879C22.9998 17.5039 22.9587 17.6216 22.9221 17.7407C22.9608 17.6127 23.0019 17.5136 23.0454 17.3879V17.371C23.6347 15.8353 24.6902 14.5228 26.0638 13.6179C26.1387 13.5575 25.7593 13.6348 25.8391 13.5768C26.0856 13.4536 26.349 13.3279 26.6341 13.2264C26.7767 13.1829 26.042 12.9026 25.3895 12.9606C24.9969 12.9884 24.6111 13.0781 24.2465 13.2264C24.4084 13.108 24.8555 12.9412 24.754 12.9412C23.9254 13.0873 23.1307 13.3847 22.4098 13.8185C22.4098 13.7387 22.434 13.6735 22.4533 13.6179C21.8804 13.8588 21.3805 14.2454 21.0033 14.7392V14.4686C20.749 14.6759 20.5107 14.9021 20.2904 15.1452H20.271C18.5744 14.4884 16.7244 14.334 14.9423 14.7006L14.923 14.6788H14.9423C14.571 14.3825 14.2545 14.0234 14.007 13.6179L13.9829 13.6348L13.9466 13.5962C13.8185 13.4318 13.7219 13.2288 13.5914 13.0017C13.4947 12.8567 13.4125 12.673 13.311 12.4942C13.311 12.4942 13.311 12.4748 13.2917 12.4748C13.2675 12.4748 13.2289 12.6609 13.212 12.5932C12.8977 11.7828 12.7506 10.9172 12.7794 10.0485H12.7601C12.2483 10.3866 11.8666 10.8885 11.6774 11.4719C11.5783 11.6797 11.5155 11.7812 11.455 11.9045V11.8368L11.513 11.5347C11.4985 11.5565 11.4986 11.5758 11.472 11.5952C11.3275 11.7639 11.2057 11.9508 11.1095 12.151C11.0036 12.3362 10.92 12.5333 10.8605 12.7382V12.6367C10.8605 12.5546 10.8823 12.4313 10.8605 12.4748L10.8388 12.5304C10.1796 13.9843 9.76639 15.5376 9.61597 17.1269C9.5773 17.4121 9.5773 17.6779 9.5773 17.9413V17.9848C9.11091 18.4936 8.69491 19.0464 8.33513 19.6354C7.14973 21.6359 6.26848 23.8015 5.7203 26.0613C6.10938 25.2058 6.5758 24.3672 7.12922 23.5939C6.07421 26.2502 5.53376 29.0829 5.53663 31.9411C5.7203 31.1049 5.94505 30.2881 6.20847 29.4712C6.04733 32.8485 6.69959 36.215 8.11038 39.2877C10.0031 43.5396 13.1566 47.1073 17.1439 49.5078C18.7543 50.6101 20.5213 51.4639 22.3856 52.0405C22.6321 52.1202 22.9004 52.2193 23.142 52.3039C23.0599 52.2604 22.9995 52.2193 22.9197 52.2024C25.1299 52.8612 27.4236 53.1974 29.7299 53.2005C37.9151 53.2005 40.6073 50.0782 40.8707 49.7737C41.2574 49.4087 41.603 48.9737 41.8277 48.4662C41.9921 48.4082 42.1346 48.3454 42.299 48.2632L42.3981 48.2246C42.5213 48.1617 42.5793 48.1424 42.5793 48.1424C43.819 47.5616 44.9849 46.8346 46.0521 45.9771C47.6373 44.8272 48.7708 43.1594 49.2566 41.2622C49.5586 40.571 49.5586 39.8122 49.3146 39.1017C49.4354 38.8987 49.5417 38.7126 49.5586 38.6715C51.318 35.8521 52.3163 32.6248 52.4562 29.3045V29.0242C52.4609 28.3179 52.4027 27.6127 52.2822 26.9168Z" fill="#151E2C"/>
</svg>
