<svg width="160" height="42" viewBox="0 0 160 42" fill="none" xmlns="http://www.w3.org/2000/svg">
<path d="M37.424 14.7C37.856 14.7 38 14.856 38 15.276V24.78H42.884C43.304 24.78 43.46 24.936 43.46 25.356V26.196C43.46 26.616 43.304 26.772 42.884 26.772H36.452C36.032 26.772 35.864 26.616 35.864 26.196V15.276C35.864 14.856 36.032 14.7 36.452 14.7H37.424Z" fill="#9C9C9C"/>
<path d="M47.7201 18.888C47.7201 16.116 49.4721 14.448 52.5201 14.448C55.5681 14.448 57.3201 16.116 57.3201 18.888V22.584C57.3201 25.356 55.5561 27.024 52.5201 27.024C49.4841 27.024 47.7201 25.356 47.7201 22.584V18.888ZM55.3041 18.888C55.3041 17.328 54.3321 16.488 52.5801 16.488C50.8281 16.488 49.8681 17.34 49.8681 18.888V22.608C49.8681 24.18 50.8281 25.008 52.5801 25.008C54.3321 25.008 55.3041 24.144 55.3041 22.608V18.888Z" fill="#9C9C9C"/>
<path d="M71.612 20.16C72.08 20.16 72.188 20.316 72.188 20.736V23.016C72.2007 23.553 72.0931 24.0862 71.873 24.5761C71.6528 25.0662 71.3259 25.5007 70.916 25.848C69.898 26.6586 68.6145 27.0607 67.316 26.976C64.208 26.976 62.516 25.308 62.516 22.536V18.816C62.516 16.08 64.268 14.4 67.316 14.4C69.716 14.4 71.276 15.348 71.936 17.244C71.9729 17.3153 71.9927 17.3941 71.9938 17.4743C71.9949 17.5546 71.9773 17.634 71.9423 17.7061C71.9074 17.7784 71.8561 17.8415 71.7925 17.8905C71.7289 17.9393 71.6547 17.9728 71.576 17.988L70.64 18.312C70.232 18.456 70.064 18.372 69.92 17.952C69.7211 17.4395 69.3572 17.0077 68.8856 16.7253C68.414 16.4428 67.8617 16.3254 67.316 16.392C65.552 16.392 64.592 17.244 64.592 18.792V22.608C64.592 24.18 65.564 25.008 67.316 25.008C69.068 25.008 70.148 24.204 70.148 23.028V22.14H67.544C67.112 22.14 66.956 21.972 66.956 21.552V20.736C66.956 20.316 67.112 20.16 67.544 20.16H71.612Z" fill="#9C9C9C"/>
<path d="M77.144 18.888C77.144 16.116 78.896 14.448 81.944 14.448C84.992 14.448 86.744 16.116 86.744 18.888V22.584C86.744 25.356 84.98 27.024 81.944 27.024C78.908 27.024 77.144 25.356 77.144 22.584V18.888ZM84.716 18.888C84.716 17.328 83.744 16.488 82.004 16.488C80.264 16.488 79.28 17.34 79.28 18.888V22.608C79.28 24.18 80.252 25.008 82.004 25.008C83.756 25.008 84.716 24.144 84.716 22.608V18.888Z" fill="#9C9C9C"/>
<path d="M92.396 15.048C92.396 14.784 92.48 14.7 92.744 14.7H93.296C93.56 14.7 93.62 14.784 93.62 15.048V26.424C93.62 26.688 93.62 26.772 93.296 26.772H92.744C92.48 26.772 92.396 26.688 92.396 26.424V15.048Z" fill="#9C9C9C"/>
<path d="M104.552 14.7C105.551 14.7 106.51 15.097 107.216 15.8037C107.923 16.5102 108.32 17.4687 108.32 18.468C108.32 19.4674 107.923 20.4258 107.216 21.1324C106.51 21.8391 105.551 22.236 104.552 22.236H100.952V26.424C100.952 26.688 100.892 26.772 100.64 26.772H100.076C99.824 26.772 99.728 26.688 99.728 26.424V15.048C99.728 14.784 99.824 14.7 100.076 14.7H104.552ZM104.444 21.048C104.788 21.048 105.128 20.9803 105.445 20.8489C105.762 20.7174 106.051 20.5247 106.294 20.2818C106.537 20.0389 106.729 19.7505 106.861 19.4332C106.992 19.1158 107.06 18.7756 107.06 18.432C107.06 18.0885 106.992 17.7483 106.861 17.4309C106.729 17.1136 106.537 16.8251 106.294 16.5822C106.051 16.3393 105.762 16.1466 105.445 16.0151C105.128 15.8837 104.788 15.816 104.444 15.816H100.844V21.048H104.444Z" fill="#9C9C9C"/>
<path d="M117.692 14.46C118.619 14.3577 119.553 14.5571 120.358 15.0283C121.161 15.4997 121.792 16.2177 122.156 17.076C122.252 17.268 122.156 17.424 121.964 17.52L121.436 17.76C121.22 17.844 121.136 17.832 121.004 17.604C120.732 16.967 120.265 16.433 119.669 16.0793C119.074 15.7255 118.381 15.5702 117.692 15.636C115.664 15.636 114.56 16.44 114.56 17.88C114.548 18.32 114.696 18.7496 114.976 19.0892C115.256 19.4288 115.65 19.6557 116.084 19.728C116.729 19.9385 117.399 20.0675 118.076 20.112C118.896 20.1557 119.705 20.3215 120.476 20.604C121.068 20.7911 121.576 21.1758 121.917 21.6937C122.258 22.2116 122.41 22.8311 122.348 23.448C122.348 25.692 120.716 27.048 117.716 27.048C116.732 27.1605 115.739 26.9325 114.903 26.4019C114.067 25.8714 113.437 25.0701 113.12 24.132C113.099 24.0893 113.087 24.0423 113.086 23.9946C113.086 23.9468 113.095 23.8995 113.115 23.856C113.134 23.8124 113.163 23.7737 113.199 23.7426C113.235 23.7114 113.278 23.6887 113.324 23.676L113.852 23.484C113.894 23.4669 113.938 23.4588 113.983 23.46C114.028 23.4612 114.072 23.4717 114.113 23.4909C114.154 23.5101 114.19 23.5375 114.219 23.5715C114.249 23.6054 114.271 23.645 114.284 23.688C114.553 24.3659 115.03 24.9407 115.647 25.3291C116.264 25.7174 116.989 25.8992 117.716 25.848C119.984 25.848 121.1 25.056 121.1 23.448C121.122 23.0253 120.992 22.6088 120.735 22.2726C120.478 21.9365 120.109 21.7023 119.696 21.612C119.075 21.4268 118.435 21.314 117.788 21.276L116.492 21.108C116.086 21.0219 115.686 20.9137 115.292 20.784C114.903 20.6665 114.54 20.475 114.224 20.22C113.906 19.9317 113.655 19.577 113.489 19.1809C113.323 18.7848 113.246 18.3571 113.264 17.928C113.348 15.828 114.92 14.46 117.692 14.46Z" fill="#9C9C9C"/>
<path d="M128.816 22.668C128.866 23.5167 129.24 24.3138 129.859 24.8967C130.478 25.4795 131.296 25.804 132.146 25.804C132.996 25.804 133.814 25.4795 134.433 24.8967C135.052 24.3138 135.424 23.5167 135.476 22.668V15.048C135.476 14.784 135.56 14.7 135.824 14.7H136.376C136.64 14.7 136.724 14.784 136.724 15.048V22.656C136.724 25.38 135.116 27.024 132.152 27.024C129.188 27.024 127.58 25.38 127.58 22.656V15.048C127.58 14.784 127.664 14.7 127.916 14.7H128.48C128.732 14.7 128.816 14.784 128.816 15.048V22.668Z" fill="#9C9C9C"/>
<path d="M153.284 14.7C153.548 14.7 153.632 14.784 153.632 15.048V26.424C153.632 26.688 153.548 26.772 153.284 26.772H152.78C152.528 26.772 152.444 26.688 152.444 26.424V19.5C152.444 18.4926 152.512 17.4863 152.648 16.488H152.576C152.202 17.4008 151.764 18.2869 151.268 19.14L148.688 23.688C148.657 23.7669 148.602 23.8344 148.531 23.8815C148.46 23.9286 148.377 23.9532 148.292 23.952H147.956C147.87 23.9525 147.786 23.9276 147.712 23.8808C147.64 23.8339 147.583 23.7669 147.548 23.688L144.932 19.092C144.468 18.2511 144.067 17.3767 143.732 16.476H143.66C143.782 17.4834 143.847 18.4971 143.852 19.512V26.424C143.852 26.688 143.768 26.772 143.504 26.772H143.036C142.772 26.772 142.688 26.688 142.688 26.424V15.048C142.688 14.784 142.772 14.7 143.036 14.7H143.468C143.566 14.6909 143.666 14.7123 143.751 14.7618C143.838 14.8112 143.906 14.8861 143.948 14.976L148.148 22.44L152.324 15.048C152.456 14.796 152.528 14.76 152.792 14.76L153.284 14.7Z" fill="#9C9C9C"/>
<path d="M16.0761 24.948V33.624C16.0761 33.9566 15.944 34.2756 15.7088 34.5107C15.4737 34.7459 15.1547 34.878 14.8221 34.878C14.4896 34.878 14.1706 34.7459 13.9354 34.5107C13.7002 34.2756 13.5681 33.9566 13.5681 33.624V24.96C13.9173 25.215 14.3359 25.3573 14.7681 25.368C15.2392 25.3814 15.7009 25.2332 16.0761 24.948ZM26.7561 22.44C26.4379 22.44 26.1326 22.5665 25.9076 22.7915C25.6826 23.0165 25.5561 23.3217 25.5561 23.64V25.152C25.5561 25.4846 25.6882 25.8036 25.9234 26.0387C26.1585 26.2739 26.4775 26.406 26.8101 26.406C27.1427 26.406 27.4617 26.2739 27.6968 26.0387C27.932 25.8036 28.0641 25.4846 28.0641 25.152V23.7C28.0735 23.5279 28.0456 23.3558 27.9825 23.1955C27.9194 23.0352 27.8225 22.8902 27.6983 22.7707C27.5743 22.6512 27.4258 22.5597 27.2633 22.5026C27.1007 22.4456 26.9277 22.4243 26.7561 22.44ZM10.8441 28.236C10.4123 28.223 9.99429 28.0809 9.6441 27.828V36.528C9.6441 36.8622 9.77684 37.1827 10.0131 37.419C10.2494 37.6553 10.5699 37.788 10.9041 37.788C11.2383 37.788 11.5588 37.6553 11.795 37.419C12.0314 37.1827 12.1641 36.8622 12.1641 36.528V27.888C11.7722 28.1413 11.3099 28.2632 10.8441 28.236ZM22.8441 19.836C22.6815 19.8278 22.519 19.8529 22.3664 19.9095C22.2139 19.9662 22.0744 20.0533 21.9565 20.1655C21.8386 20.2778 21.7449 20.4128 21.6808 20.5625C21.6169 20.7121 21.5839 20.8733 21.5841 21.036V27.72C21.5841 28.0542 21.7168 28.3747 21.9531 28.611C22.1895 28.8473 22.5099 28.98 22.8441 28.98C23.1783 28.98 23.4988 28.8473 23.7351 28.611C23.9714 28.3747 24.1041 28.0542 24.1041 27.72V21.12C24.1137 20.9468 24.0856 20.7737 24.0218 20.6124C23.9579 20.4511 23.86 20.3055 23.7345 20.1858C23.609 20.066 23.4591 19.9748 23.2951 19.9187C23.131 19.8624 22.9567 19.8423 22.7841 19.86L22.8441 19.836ZM18.8601 22.404C18.4081 22.4009 17.9681 22.2584 17.6001 21.996V30.72C17.6001 31.0542 17.7328 31.3747 17.9691 31.611C18.2055 31.8473 18.5259 31.98 18.8601 31.98C19.1943 31.98 19.5147 31.8473 19.7511 31.611C19.9874 31.3747 20.1201 31.0542 20.1201 30.72V22.008C19.7395 22.2915 19.2747 22.4394 18.8001 22.428L18.8601 22.404ZM8.1201 29.088V4.71598C8.11694 4.41889 7.9967 4.13507 7.7855 3.92611C7.5743 3.71716 7.28919 3.59996 6.9921 3.59998H6.7281C6.431 3.59996 6.14589 3.71716 5.93469 3.92611C5.72349 4.13507 5.60325 4.41889 5.6001 4.71598V29.088C5.6001 29.3871 5.71895 29.6741 5.93048 29.8856C6.14202 30.0972 6.42894 30.216 6.7281 30.216H6.9921C7.29127 30.216 7.57818 30.0972 7.78971 29.8856C8.00126 29.6741 8.1201 29.3871 8.1201 29.088ZM10.9761 27.312H10.7121C10.4129 27.312 10.126 27.1932 9.91448 26.9816C9.70295 26.7701 9.5841 26.4831 9.5841 26.184V7.61998C9.58727 7.3229 9.70749 7.03906 9.91869 6.83011C10.1299 6.62116 10.415 6.50396 10.7121 6.50398H10.9761C11.2732 6.50396 11.5583 6.62116 11.7695 6.83011C11.9807 7.03906 12.1009 7.3229 12.1041 7.61998V26.208C12.1041 26.5071 11.9852 26.7941 11.7737 27.0056C11.5622 27.2172 11.2753 27.336 10.9761 27.336V27.312ZM14.9481 24.456H14.6721C14.3762 24.456 14.0923 24.3384 13.883 24.1291C13.6737 23.9198 13.5561 23.636 13.5561 23.34V10.5C13.5545 10.3524 13.5823 10.206 13.6376 10.0692C13.6929 9.93243 13.7749 9.80798 13.8787 9.70308C13.9825 9.59818 14.1061 9.5149 14.2423 9.45806C14.3785 9.40123 14.5245 9.37196 14.6721 9.37198H14.9481C15.2452 9.37514 15.529 9.49537 15.7379 9.70657C15.947 9.91777 16.0641 10.2029 16.0641 10.5V23.34C16.0641 23.636 15.9465 23.9198 15.7372 24.1291C15.5279 24.3384 15.2441 24.456 14.9481 24.456ZM18.9201 21.516H18.6681C18.371 21.516 18.0859 21.3989 17.8747 21.1898C17.6635 20.9809 17.5432 20.6971 17.5401 20.4V13.488C17.5303 13.3339 17.5521 13.1795 17.6044 13.0341C17.6566 12.8889 17.7382 12.7559 17.8439 12.6434C17.9497 12.5309 18.0773 12.4413 18.2192 12.3801C18.3609 12.3191 18.5137 12.2876 18.6681 12.288H18.9321C19.2313 12.288 19.5182 12.4068 19.7297 12.6183C19.9413 12.8299 20.0601 13.1168 20.0601 13.416V20.376C20.0617 20.5251 20.0337 20.6731 19.9777 20.8113C19.9217 20.9496 19.8389 21.0753 19.7339 21.1814C19.6291 21.2874 19.5043 21.3715 19.3665 21.429C19.2289 21.4865 19.0813 21.516 18.9321 21.516H18.9201ZM22.9041 18.936H22.6401C22.3409 18.936 22.054 18.8172 21.8425 18.6056C21.6309 18.3941 21.5121 18.1071 21.5121 17.808V16.02C21.5152 15.7229 21.6355 15.4391 21.8467 15.2301C22.0579 15.0211 22.343 14.904 22.6401 14.904H22.9041C23.2012 14.904 23.4863 15.0211 23.6975 15.2301C23.9087 15.4391 24.029 15.7229 24.0321 16.02V17.808C24.0321 18.1051 23.915 18.3902 23.7059 18.6014C23.497 18.8126 23.2132 18.9329 22.9161 18.936H22.9041Z" fill="#9C9C9C"/>
</svg>
