<svg width="168" height="42" viewBox="0 0 168 42" fill="none" xmlns="http://www.w3.org/2000/svg">
<g clip-path="url(#clip0_3_96)">
<path d="M50.598 29.3532H62.3944V25.7532H54.7907V12.1932H50.598V29.3532Z" fill="#9C9C9C"/>
<path d="M69.3833 26.9532C67.7015 26.9532 66.8251 25.4652 66.8251 23.2332C66.8251 21.0012 67.7015 19.4892 69.3833 19.4892C71.0652 19.4892 71.9653 21.0012 71.9653 23.2332C71.9653 25.4652 71.0652 26.9532 69.3833 26.9532ZM69.407 29.7372C73.3155 29.7372 75.8737 26.9292 75.8737 23.2332C75.8737 19.5372 73.3155 16.7292 69.407 16.7292C65.5223 16.7292 62.9166 19.5372 62.9166 23.2332C62.9166 26.9292 65.5223 29.7372 69.407 29.7372Z" fill="#9C9C9C"/>
<path d="M82.639 33.6012C84.4393 33.6012 86.0263 33.1932 87.0923 32.2332C88.0634 31.3452 88.703 30.0012 88.703 28.1532V17.0652H85.0078V18.3852H84.9604C84.2497 17.3532 83.1601 16.7052 81.5494 16.7052C78.5411 16.7052 76.4565 19.2492 76.4565 22.8492C76.4565 26.6172 78.9911 28.6812 81.7152 28.6812C83.1838 28.6812 84.1076 28.0812 84.8183 27.2652H84.913V28.4892C84.913 29.9772 84.2261 30.8412 82.5916 30.8412C81.3125 30.8412 80.6729 30.2892 80.4597 29.6412H76.7171C77.0961 32.2092 79.2991 33.6012 82.639 33.6012ZM82.6153 25.7772C81.1704 25.7772 80.2229 24.5772 80.2229 22.7292C80.2229 20.8572 81.1704 19.6572 82.6153 19.6572C84.2261 19.6572 85.0788 21.0492 85.0788 22.7052C85.0788 24.4332 84.2971 25.7772 82.6153 25.7772Z" fill="#9C9C9C"/>
<path d="M96.3012 26.9532C94.6194 26.9532 93.7429 25.4652 93.7429 23.2332C93.7429 21.0012 94.6194 19.4892 96.3012 19.4892C97.983 19.4892 98.8831 21.0012 98.8831 23.2332C98.8831 25.4652 97.983 26.9532 96.3012 26.9532ZM96.3249 29.7372C100.233 29.7372 102.792 26.9292 102.792 23.2332C102.792 19.5372 100.233 16.7292 96.3249 16.7292C92.4401 16.7292 89.8345 19.5372 89.8345 23.2332C89.8345 26.9292 92.4401 29.7372 96.3249 29.7372Z" fill="#9C9C9C"/>
<path d="M103.919 29.3532H107.78V17.0652H103.919V29.3532ZM103.919 15.3612H107.78V12.1932H103.919V15.3612Z" fill="#9C9C9C"/>
<path d="M109.456 33.4092H113.317V28.0812H113.364C114.122 29.1132 115.235 29.7372 116.799 29.7372C119.973 29.7372 122.081 27.1932 122.081 23.2092C122.081 19.5132 120.115 16.7052 116.894 16.7052C115.235 16.7052 114.051 17.4492 113.222 18.5532H113.151V17.0652H109.456V33.4092ZM115.804 26.7132C114.146 26.7132 113.198 25.3452 113.198 23.3532C113.198 21.3612 114.051 19.8492 115.733 19.8492C117.391 19.8492 118.173 21.2412 118.173 23.3532C118.173 25.4412 117.273 26.7132 115.804 26.7132Z" fill="#9C9C9C"/>
<path d="M128.367 29.7372C131.541 29.7372 133.886 28.3452 133.886 25.6572C133.886 22.5132 131.376 21.9612 129.244 21.6012C127.704 21.3132 126.33 21.1932 126.33 20.3292C126.33 19.5612 127.064 19.2012 128.012 19.2012C129.078 19.2012 129.812 19.5372 129.954 20.6412H133.507C133.318 18.2172 131.47 16.7052 128.036 16.7052C125.169 16.7052 122.801 18.0492 122.801 20.6412C122.801 23.5212 125.051 24.0972 127.159 24.4572C128.77 24.7452 130.239 24.8652 130.239 25.9692C130.239 26.7612 129.504 27.1932 128.344 27.1932C127.064 27.1932 126.259 26.5932 126.117 25.3692H122.469C122.587 28.0812 124.814 29.7372 128.367 29.7372Z" fill="#9C9C9C"/>
<path d="M139.131 29.7132C140.813 29.7132 141.879 29.0412 142.755 27.8412H142.826V29.3532H146.522V17.0652H142.661V23.9292C142.661 25.3932 141.855 26.4012 140.529 26.4012C139.297 26.4012 138.705 25.6572 138.705 24.3132V17.0652H134.867V25.1292C134.867 27.8652 136.336 29.7132 139.131 29.7132Z" fill="#9C9C9C"/>
<path d="M148.201 29.3532H152.062V22.4652C152.062 21.0012 152.772 19.9692 153.98 19.9692C155.141 19.9692 155.686 20.7372 155.686 22.0572V29.3532H159.547V22.4652C159.547 21.0012 160.234 19.9692 161.466 19.9692C162.626 19.9692 163.171 20.7372 163.171 22.0572V29.3532H167.032V21.3612C167.032 18.6012 165.658 16.7052 162.911 16.7052C161.347 16.7052 160.044 17.3772 159.097 18.8652H159.05C158.434 17.5452 157.226 16.7052 155.639 16.7052C153.886 16.7052 152.725 17.5452 151.967 18.8172H151.896V17.0652H148.201V29.3532Z" fill="#9C9C9C"/>
<path fill-rule="evenodd" clip-rule="evenodd" d="M20.815 0.961914C31.9302 0.961914 40.9408 10.0914 40.9408 21.3532C40.9408 32.6151 31.9302 41.7446 20.815 41.7446C9.69974 41.7446 0.689087 32.6151 0.689087 21.3532C0.689087 10.0914 9.69974 0.961914 20.815 0.961914ZM40.1683 21.3532C40.1683 10.5237 31.5035 1.74454 20.815 1.74454C19.9528 1.74454 19.1039 1.80165 18.2714 1.91237C18.8092 1.86472 19.3535 1.84041 19.9034 1.84041C30.1169 1.84041 38.3966 10.2293 38.3966 20.5775C38.3966 30.9256 30.1169 39.3145 19.9034 39.3145C10.234 39.3145 2.29786 31.7956 1.47982 22.2135C1.92421 32.6439 10.4108 40.9619 20.815 40.9619C31.5035 40.9619 40.1683 32.1828 40.1683 21.3532ZM37.6241 20.5775C37.6241 10.6615 29.6903 2.62303 19.9034 2.62303C19.1088 2.62303 18.3263 2.67603 17.5593 2.77872C18.0316 2.73846 18.5094 2.71793 18.9919 2.71793C28.3037 2.71793 35.8524 10.3662 35.8524 19.8007C35.8524 29.2353 28.3037 36.8835 18.9919 36.8835C10.1874 36.8835 2.95917 30.0458 2.19784 21.3256C2.58492 30.8946 10.3639 38.5319 19.9034 38.5319C29.6903 38.5319 37.6241 30.4934 37.6241 20.5775ZM18.9919 3.50056C27.877 3.50056 35.0799 10.7984 35.0799 19.8007C35.0799 28.803 27.877 36.1008 18.9919 36.1008C10.3127 36.1008 3.23863 29.1372 2.91554 20.4235C3.61309 28.2885 10.1363 34.4524 18.0806 34.4524C26.4899 34.4524 33.3072 27.5453 33.3072 19.0249C33.3072 10.5045 26.4899 3.59739 18.0806 3.59739C17.6455 3.59739 17.2147 3.61588 16.7889 3.65211C17.5092 3.55218 18.2446 3.50056 18.9919 3.50056ZM32.5347 19.0249C32.5347 10.9368 26.0634 4.38003 18.0806 4.38003C17.4061 4.38003 16.7423 4.42682 16.0925 4.5174C16.4473 4.48926 16.806 4.47493 17.168 4.47493C24.6758 4.47493 30.762 10.6414 30.762 18.2482C30.762 25.8549 24.6758 32.0214 17.168 32.0214C10.1016 32.0214 4.29445 26.5585 3.63622 19.5736C3.92099 27.4075 10.279 33.6698 18.0806 33.6698C26.0634 33.6698 32.5347 27.1131 32.5347 19.0249ZM17.168 5.25756C24.2491 5.25756 29.9895 11.0737 29.9895 18.2482C29.9895 25.4227 24.2491 31.2388 17.168 31.2388C10.2264 31.2388 4.57321 25.6496 4.35317 18.6706C4.94746 24.8008 10.05 29.5904 16.2565 29.5904C22.8626 29.5904 28.2178 24.1645 28.2178 17.4714C28.2178 10.7783 22.8626 5.35245 16.2565 5.35245C15.9536 5.35245 15.6533 5.36386 15.356 5.38628C15.948 5.30144 16.5529 5.25756 17.168 5.25756ZM27.4453 17.4714C27.4453 11.2105 22.4359 6.13508 16.2565 6.13508C15.6925 6.13508 15.1382 6.17736 14.5965 6.25899C14.8438 6.24104 15.0934 6.23191 15.3451 6.23191C21.0488 6.23191 25.6726 10.9167 25.6726 16.6956C25.6726 22.4746 21.0488 27.1593 15.3451 27.1593C10.0004 27.1593 5.60399 23.0458 5.07168 17.773C5.22949 23.8945 10.1767 28.8078 16.2565 28.8078C22.4359 28.8078 27.4453 23.7323 27.4453 17.4714ZM15.3451 7.01455C20.6222 7.01455 24.9001 11.3489 24.9001 16.6956C24.9001 22.0424 20.6222 26.3767 15.3451 26.3767C10.1351 26.3767 5.89908 22.152 5.7921 16.8993C6.27339 21.3032 9.95873 24.7283 14.4337 24.7283C19.2356 24.7283 23.1284 20.7842 23.1284 15.9189C23.1284 11.0536 19.2356 7.10944 14.4337 7.10944C14.25 7.10944 14.0677 7.1152 13.8869 7.12657C14.3623 7.0528 14.8493 7.01455 15.3451 7.01455ZM22.356 15.9189C22.356 11.4858 18.809 7.89207 14.4337 7.89207C13.9943 7.89207 13.5632 7.92831 13.1433 7.998C13.2684 7.99132 13.3944 7.98794 13.5212 7.98794C17.4214 7.98794 20.5832 11.1914 20.5832 15.1431C20.5832 19.0948 17.4214 22.2983 13.5212 22.2983C9.91479 22.2983 6.9398 19.5593 6.51196 16.0225C6.56674 20.4079 10.0924 23.9457 14.4337 23.9457C18.809 23.9457 22.356 20.352 22.356 15.9189ZM13.5212 8.77056C16.9948 8.77056 19.8107 11.6236 19.8107 15.1431C19.8107 18.6626 16.9948 21.5156 13.5212 21.5156C10.0475 21.5156 7.23158 18.6626 7.23158 15.1431C7.23158 15.1347 7.2316 15.1262 7.23163 15.1178C7.59328 17.7998 9.8633 19.8663 12.6097 19.8663C15.6077 19.8663 18.038 17.4039 18.038 14.3664C18.038 11.3288 15.6077 8.86645 12.6097 8.86645C12.5419 8.86645 12.4744 8.86769 12.4072 8.87019C12.7687 8.80472 13.141 8.77056 13.5212 8.77056ZM17.2655 14.3664C17.2655 11.7611 15.1811 9.64907 12.6097 9.64907C10.0383 9.64907 7.95382 11.7611 7.95382 14.3664C7.95382 16.9716 10.0383 19.0836 12.6097 19.0836C15.1811 19.0836 17.2655 16.9716 17.2655 14.3664Z" fill="#9C9C9C"/>
</g>
<defs>
<clipPath id="clip0_3_96">
<rect width="166.8" height="42" fill="white" transform="translate(0.400024)"/>
</clipPath>
</defs>
</svg>
