<svg width="159" height="42" viewBox="0 0 159 42" fill="none" xmlns="http://www.w3.org/2000/svg">
<path d="M53.796 30.2456C53.0823 30.2844 52.3763 30.0815 51.792 29.6696C51.5479 29.4887 51.3515 29.2509 51.2197 28.9771C51.088 28.7031 51.025 28.4013 51.036 28.0976V16.9736C51.0303 16.9266 51.0352 16.8787 51.0507 16.8338C51.066 16.7889 51.0915 16.7483 51.1251 16.7147C51.1587 16.6811 51.1993 16.6556 51.2442 16.6403C51.2891 16.6248 51.337 16.6199 51.384 16.6256H53.4C53.628 16.6256 53.736 16.7456 53.736 16.9736V27.2336C53.736 27.6896 53.94 27.9176 54.36 27.9176C54.5381 27.9249 54.7162 27.9048 54.888 27.8576C55.128 27.8576 55.26 27.9296 55.272 28.1456L55.452 29.6456C55.4607 29.6894 55.4598 29.7344 55.4496 29.7779C55.4394 29.8212 55.42 29.862 55.3926 29.8971C55.3654 29.9324 55.3308 29.9615 55.2915 29.9822C55.252 30.003 55.2085 30.0151 55.164 30.0176C54.7224 30.1635 54.261 30.2405 53.796 30.2456Z" fill="#9C9C9C"/>
<path d="M65.136 28.9616C64.1231 29.7986 62.85 30.2564 61.536 30.2564C60.222 30.2564 58.949 29.7986 57.936 28.9616C57.0457 28.0628 56.5461 26.8488 56.5461 25.5836C56.5461 24.3185 57.0457 23.1044 57.936 22.2056C58.9509 21.3729 60.2232 20.9179 61.536 20.9179C62.8488 20.9179 64.121 21.3729 65.136 22.2056C66.0059 23.1127 66.4915 24.3209 66.4915 25.5776C66.4915 26.8344 66.0059 28.0425 65.136 28.9496V28.9616ZM59.832 27.3776C60.3021 27.8035 60.9137 28.0393 61.548 28.0393C62.1823 28.0393 62.7939 27.8035 63.264 27.3776C63.6895 26.8885 63.9237 26.262 63.9237 25.6136C63.9237 24.9654 63.6895 24.3389 63.264 23.8496C62.7939 23.4239 62.1823 23.1879 61.548 23.1879C60.9137 23.1879 60.3021 23.4239 59.832 23.8496C59.4066 24.3389 59.1722 24.9654 59.1722 25.6136C59.1722 26.262 59.4066 26.8885 59.832 27.3776Z" fill="#9C9C9C"/>
<path d="M77.592 21.2217C77.82 21.2217 77.928 21.3417 77.928 21.5697V30.1737C77.949 30.7545 77.8402 31.3325 77.6098 31.8659C77.3794 32.3994 77.0331 32.8749 76.596 33.2577C75.6257 34.0851 74.3779 34.5138 73.104 34.4577C71.9534 34.4981 70.8181 34.184 69.852 33.5577C69.4394 33.2868 69.087 32.9339 68.8166 32.5211C68.5461 32.1082 68.3635 31.6442 68.28 31.1577C68.28 30.9177 68.28 30.8097 68.604 30.8097H70.62C70.7055 30.8125 70.7886 30.8403 70.8588 30.8892C70.9291 30.9382 70.9837 31.0063 71.016 31.0857C71.1468 31.4501 71.4074 31.7536 71.748 31.9377C72.1631 32.1519 72.6251 32.2592 73.092 32.2497C73.3737 32.2652 73.6557 32.2242 73.9215 32.1294C74.1873 32.0347 74.4315 31.8879 74.64 31.6977C74.8304 31.4987 74.9785 31.2631 75.0755 31.0054C75.1724 30.7476 75.2161 30.4728 75.204 30.1977V29.4417C74.4822 29.9726 73.6037 30.2471 72.708 30.2217C72.0811 30.2445 71.4561 30.1404 70.8704 29.9157C70.2848 29.6908 69.7507 29.3501 69.3 28.9137C68.4349 28.0187 67.9513 26.8225 67.9513 25.5777C67.9513 24.3329 68.4349 23.1367 69.3 22.2417C69.7529 21.8092 70.2877 21.4717 70.8729 21.2491C71.4583 21.0265 72.0822 20.9233 72.708 20.9457C73.6296 20.9213 74.5317 21.2136 75.264 21.7737V21.5817C75.2585 21.5357 75.2633 21.489 75.278 21.4451C75.2928 21.4013 75.3171 21.3612 75.3493 21.3279C75.3815 21.2945 75.4207 21.2688 75.464 21.2525C75.5075 21.2362 75.5539 21.2298 75.6 21.2337L77.592 21.2217ZM72.936 28.0857C73.2451 28.0953 73.5527 28.0368 73.8367 27.9144C74.1207 27.7921 74.3745 27.6089 74.58 27.3777C74.979 26.8625 75.1954 26.2293 75.1954 25.5777C75.1954 24.9261 74.979 24.2929 74.58 23.7777C74.3753 23.5497 74.123 23.3691 73.8411 23.2488C73.5591 23.1286 73.2543 23.0716 72.948 23.0817C72.6353 23.0718 72.3242 23.13 72.0362 23.2523C71.7482 23.3746 71.4902 23.5579 71.28 23.7897C70.838 24.2825 70.6056 24.9282 70.632 25.5897C70.6104 26.2446 70.8377 26.8835 71.268 27.3777C71.4787 27.6088 71.7368 27.7918 72.0247 27.9139C72.3126 28.0361 72.6234 28.0947 72.936 28.0857Z" fill="#9C9C9C"/>
<path d="M88.284 28.9616C87.2691 29.7943 85.9968 30.2493 84.684 30.2493C83.3712 30.2493 82.099 29.7943 81.084 28.9616C80.2134 28.0525 79.7274 26.8424 79.7274 25.5836C79.7274 24.3249 80.2134 23.1147 81.084 22.2056C82.0999 21.3751 83.3718 20.9214 84.684 20.9214C85.9962 20.9214 87.2681 21.3751 88.284 22.2056C89.1539 23.1127 89.6395 24.3209 89.6395 25.5776C89.6395 26.8344 89.1539 28.0425 88.284 28.9496V28.9616ZM82.968 27.3776C83.1981 27.5965 83.4693 27.7675 83.7659 27.8808C84.0625 27.9941 84.3786 28.0475 84.696 28.0376C85.0114 28.0458 85.3253 27.9918 85.6198 27.8785C85.9143 27.7652 86.1834 27.5951 86.412 27.3776C86.8306 26.8851 87.0604 26.2599 87.0604 25.6136C87.0604 24.9673 86.8306 24.3421 86.412 23.8496C86.1834 23.6323 85.9143 23.462 85.6198 23.3489C85.3253 23.2356 85.0114 23.1815 84.696 23.1896C84.3786 23.1799 84.0625 23.2332 83.7659 23.3465C83.4693 23.4597 83.1981 23.6309 82.968 23.8496C82.5496 24.3421 82.3198 24.9673 82.3198 25.6136C82.3198 26.2599 82.5496 26.8851 82.968 27.3776Z" fill="#9C9C9C"/>
<path d="M93.972 19.1816C93.6548 19.4593 93.2476 19.6123 92.826 19.6123C92.4045 19.6123 91.9973 19.4593 91.68 19.1816C91.5363 19.0459 91.4216 18.8822 91.3433 18.7007C91.265 18.5191 91.2246 18.3234 91.2246 18.1256C91.2246 17.9279 91.265 17.7323 91.3433 17.5506C91.4216 17.369 91.5363 17.2053 91.68 17.0696C92.0005 16.7989 92.4065 16.6505 92.826 16.6505C93.2455 16.6505 93.6515 16.7989 93.972 17.0696C94.1159 17.2053 94.2305 17.369 94.3087 17.5506C94.3871 17.7323 94.4274 17.9279 94.4274 18.1256C94.4274 18.3234 94.3871 18.5191 94.3087 18.7007C94.2305 18.8822 94.1159 19.0459 93.972 19.1816ZM94.224 30.2456C93.5107 30.2807 92.806 30.0781 92.22 29.6696C91.9796 29.486 91.7866 29.2475 91.6572 28.974C91.5277 28.7005 91.4656 28.4 91.476 28.0976V21.5696C91.4703 21.5226 91.4752 21.4747 91.4907 21.4298C91.506 21.3849 91.5314 21.3443 91.565 21.3107C91.5986 21.2771 91.6393 21.2516 91.6842 21.2363C91.7291 21.2208 91.777 21.2159 91.824 21.2216H93.84C94.068 21.2216 94.176 21.3416 94.176 21.5696V27.2336C94.176 27.6896 94.38 27.9176 94.788 27.9176C94.97 27.9242 95.152 27.9039 95.328 27.8576C95.568 27.8576 95.7 27.9296 95.712 28.1456L95.892 29.6456C95.9007 29.6894 95.8998 29.7344 95.8896 29.7779C95.8794 29.8212 95.86 29.862 95.8326 29.8971C95.8054 29.9324 95.7708 29.9615 95.7314 29.9822C95.692 30.003 95.6485 30.0151 95.604 30.0176C95.1586 30.1644 94.6931 30.2413 94.224 30.2456Z" fill="#9C9C9C"/>
<path d="M103.308 20.9336C103.938 20.9088 104.566 21.0107 105.155 21.2333C105.745 21.456 106.284 21.7948 106.74 22.2296C107.589 23.1404 108.06 24.3389 108.06 25.5836C108.06 26.8284 107.589 28.027 106.74 28.9376C106.286 29.3765 105.748 29.7186 105.158 29.9434C104.568 30.1682 103.939 30.2711 103.308 30.2456C102.409 30.2657 101.529 29.9918 100.8 29.4656V33.7976C100.8 34.0256 100.68 34.1336 100.452 34.1336H98.436C98.39 34.1423 98.3426 34.1395 98.2979 34.1257C98.2532 34.1118 98.2125 34.0873 98.1794 34.0542C98.1464 34.0211 98.1218 33.9805 98.108 33.9358C98.0941 33.8911 98.0914 33.8437 98.1 33.7976V23.9576C98.1141 23.8614 98.1055 23.7632 98.075 23.6708C98.0444 23.5786 97.9926 23.4946 97.9238 23.4258C97.8551 23.357 97.7712 23.3053 97.6788 23.2747C97.5865 23.2441 97.4882 23.2356 97.392 23.2496H96.996C96.732 23.2496 96.6 23.1536 96.6 22.9616V21.5456C96.5937 21.458 96.6177 21.3709 96.668 21.2989C96.7182 21.2268 96.7916 21.1741 96.876 21.1496C97.2911 20.9988 97.7304 20.9256 98.172 20.9336C98.6124 20.8946 99.0543 20.9881 99.4413 21.2018C99.8282 21.4157 100.143 21.7402 100.344 22.1336C100.73 21.7427 101.193 21.4346 101.702 21.2282C102.212 21.022 102.758 20.9216 103.308 20.9336ZM101.436 27.3776C101.65 27.6013 101.907 27.7793 102.192 27.9008C102.476 28.0224 102.782 28.085 103.092 28.085C103.401 28.085 103.708 28.0224 103.992 27.9008C104.277 27.7793 104.534 27.6013 104.748 27.3776C105.199 26.875 105.435 26.2163 105.408 25.5416C105.439 24.8665 105.202 24.2063 104.748 23.7056C104.534 23.4821 104.277 23.3041 103.992 23.1826C103.708 23.0609 103.401 22.9982 103.092 22.9982C102.782 22.9982 102.476 23.0609 102.192 23.1826C101.907 23.3041 101.65 23.4821 101.436 23.7056C100.999 24.2152 100.772 24.8712 100.8 25.5416C100.776 26.2116 101.003 26.8664 101.436 27.3776Z" fill="#9C9C9C"/>
<path d="M113.724 30.2457C112.647 30.2899 111.579 30.0323 110.64 29.5017C110.263 29.2749 109.943 28.9661 109.702 28.5984C109.461 28.2307 109.306 27.8135 109.248 27.3777C109.248 27.1377 109.332 27.0177 109.596 27.0177H111.36C111.444 27.021 111.525 27.0473 111.595 27.094C111.665 27.1405 111.721 27.2055 111.756 27.2817C112.008 27.9297 112.668 28.2537 113.724 28.2537C114.092 28.2706 114.459 28.1963 114.792 28.0377C114.907 27.9858 115.006 27.9037 115.077 27.8002C115.149 27.6966 115.192 27.5754 115.2 27.4497C115.2 27.1377 115.008 26.9217 114.624 26.7777C114.169 26.6261 113.698 26.5254 113.22 26.4777C112.654 26.4136 112.093 26.3134 111.54 26.1777C111.002 26.056 110.513 25.7759 110.136 25.3737C109.914 25.1003 109.75 24.7841 109.656 24.4449C109.561 24.1056 109.537 23.7504 109.585 23.4016C109.634 23.0526 109.754 22.7173 109.937 22.4167C110.121 22.116 110.364 21.8563 110.652 21.6537C111.517 21.1027 112.532 20.8343 113.556 20.8857C114.548 20.8522 115.529 21.0975 116.388 21.5937C116.734 21.7899 117.032 22.0607 117.261 22.3866C117.489 22.7125 117.642 23.0853 117.708 23.4777C117.708 23.7177 117.6 23.8377 117.384 23.8377H115.608C115.533 23.8421 115.459 23.8239 115.395 23.7853C115.33 23.7468 115.279 23.6897 115.248 23.6217C115.129 23.3375 114.906 23.1097 114.624 22.9857C114.306 22.8193 113.951 22.7367 113.592 22.7457C113.24 22.7266 112.889 22.7968 112.572 22.9497C112.46 22.9929 112.364 23.0685 112.295 23.1669C112.227 23.2653 112.19 23.3819 112.188 23.5017C112.196 23.6658 112.256 23.8231 112.36 23.9506C112.463 24.078 112.605 24.1687 112.764 24.2097C113.225 24.3834 113.704 24.5041 114.192 24.5697C114.753 24.6436 115.31 24.7477 115.86 24.8817C116.398 25.0035 116.887 25.2834 117.264 25.6857C117.466 25.9073 117.622 26.1666 117.723 26.4489C117.823 26.731 117.868 27.0304 117.852 27.3297C117.862 27.7445 117.765 28.1549 117.569 28.5209C117.374 28.8868 117.087 29.1958 116.736 29.4177C115.84 29.9933 114.789 30.282 113.724 30.2457Z" fill="#9C9C9C"/>
<path d="M130.536 29.6456C130.543 29.6882 130.541 29.7318 130.531 29.7737C130.52 29.8157 130.502 29.855 130.476 29.8897C130.451 29.9244 130.418 29.9535 130.381 29.9755C130.344 29.9975 130.303 30.0117 130.26 30.0176C129.822 30.1607 129.365 30.2376 128.904 30.2456C128.448 30.2929 127.987 30.2216 127.567 30.0387C127.146 29.8559 126.78 29.5675 126.504 29.2016C125.657 29.9304 124.56 30.3043 123.444 30.2456C122.926 30.2695 122.408 30.1847 121.925 29.9966C121.441 29.8086 121.002 29.5214 120.636 29.1536C120.272 28.7683 119.991 28.3135 119.807 27.8166C119.624 27.3197 119.542 26.7908 119.568 26.2616V21.5696C119.568 21.3416 119.676 21.2216 119.904 21.2216H121.92C122.148 21.2216 122.256 21.3416 122.256 21.5696V25.9016C122.234 26.4414 122.418 26.9691 122.772 27.3776C122.948 27.5648 123.163 27.7119 123.401 27.8093C123.638 27.9066 123.895 27.9517 124.152 27.9416C124.415 27.9531 124.678 27.9125 124.925 27.8217C125.172 27.7311 125.399 27.5924 125.592 27.4136C125.774 27.2252 125.917 27.0013 126.01 26.7557C126.103 26.51 126.144 26.2479 126.132 25.9856V21.5696C126.132 21.3416 126.24 21.2216 126.468 21.2216H128.508C128.736 21.2216 128.844 21.3416 128.844 21.5696V27.2216C128.844 27.6896 129.048 27.9176 129.444 27.9176C129.63 27.9248 129.816 27.9047 129.996 27.8576C130.042 27.8449 130.09 27.8426 130.135 27.851C130.182 27.8593 130.225 27.878 130.264 27.9057C130.302 27.9335 130.333 27.9695 130.356 28.011C130.378 28.0525 130.39 28.0986 130.392 28.1456L130.536 29.6456Z" fill="#9C9C9C"/>
<path d="M149.604 29.6457C149.615 29.6886 149.616 29.7335 149.608 29.7769C149.598 29.8203 149.58 29.8613 149.554 29.8968C149.527 29.9323 149.494 29.9616 149.454 29.9825C149.416 30.0035 149.372 30.0155 149.328 30.0177C148.882 30.1627 148.417 30.2397 147.948 30.2457C147.234 30.2825 146.53 30.0798 145.944 29.6697C145.691 29.494 145.486 29.2587 145.345 28.9845C145.205 28.7103 145.134 28.4056 145.14 28.0977V25.2777C145.165 24.7396 144.985 24.2119 144.636 23.8017C144.468 23.6141 144.259 23.4663 144.028 23.3687C143.795 23.2713 143.544 23.2265 143.292 23.2377C143.065 23.2291 142.84 23.2722 142.631 23.3637C142.423 23.4551 142.24 23.5926 142.092 23.7657C141.775 24.1678 141.613 24.6703 141.636 25.1817V29.6097C141.636 29.8377 141.528 29.9577 141.3 29.9577H139.272C139.225 29.9635 139.177 29.9585 139.133 29.9431C139.087 29.9277 139.046 29.9022 139.013 29.8686C138.979 29.8351 138.954 29.7943 138.938 29.7495C138.923 29.7046 138.918 29.6568 138.924 29.6097V25.2777C138.95 24.7455 138.784 24.2215 138.456 23.8017C138.31 23.6253 138.126 23.4833 137.918 23.3859C137.712 23.2884 137.485 23.2378 137.256 23.2377C137.011 23.2278 136.768 23.2697 136.54 23.3608C136.312 23.4517 136.106 23.5897 135.936 23.7657C135.593 24.1549 135.416 24.6635 135.444 25.1817V29.6097C135.45 29.6568 135.445 29.7046 135.43 29.7495C135.414 29.7943 135.389 29.8351 135.355 29.8686C135.322 29.9022 135.281 29.9277 135.236 29.9431C135.191 29.9585 135.143 29.9635 135.096 29.9577H133.14C132.912 29.9577 132.804 29.8377 132.804 29.6097V23.9577C132.818 23.8614 132.81 23.7633 132.779 23.6709C132.749 23.5786 132.697 23.4946 132.628 23.4258C132.559 23.3571 132.475 23.3053 132.383 23.2747C132.29 23.2441 132.192 23.2356 132.096 23.2497H131.7C131.436 23.2497 131.304 23.1537 131.304 22.9617V21.5457C131.298 21.4581 131.322 21.3709 131.372 21.2989C131.423 21.2268 131.496 21.1741 131.58 21.1497C131.995 20.9988 132.434 20.9256 132.876 20.9337C133.3 20.8975 133.726 20.982 134.104 21.1774C134.482 21.3727 134.796 21.6709 135.012 22.0377C135.416 21.654 135.896 21.3579 136.421 21.1679C136.945 20.9779 137.503 20.8983 138.06 20.9337C138.601 20.9073 139.14 21.0087 139.634 21.2297C140.129 21.4507 140.563 21.7851 140.904 22.2057C141.301 21.774 141.79 21.4361 142.333 21.216C142.877 20.9961 143.462 20.8997 144.048 20.9337C144.571 20.9092 145.094 20.9935 145.584 21.1816C146.074 21.3695 146.519 21.6569 146.892 22.0257C147.257 22.4103 147.539 22.8649 147.722 23.3621C147.906 23.8591 147.988 24.3885 147.96 24.9177V27.2337C147.96 27.6897 148.164 27.9177 148.548 27.9177C148.734 27.9263 148.92 27.9061 149.1 27.8577C149.348 27.8577 149.48 27.9537 149.496 28.1457L149.604 29.6457Z" fill="#9C9C9C"/>
<path d="M8.89202 19.6617C9.77735 16.1033 11.8277 12.9433 14.7167 10.6851C17.6057 8.42682 21.1672 7.20001 24.834 7.20001C28.5009 7.20001 32.0623 8.42682 34.9513 10.6851C37.8403 12.9433 39.8907 16.1033 40.776 19.6617H39.336C36.9069 19.6259 34.5275 20.3519 32.532 21.7377C32.4168 21.8211 32.2966 21.8973 32.172 21.9657H32.004C31.8795 21.8973 31.7592 21.8211 31.644 21.7377C29.6309 20.3839 27.2599 19.6609 24.834 19.6609C22.4081 19.6609 20.0371 20.3839 18.024 21.7377C17.9088 21.8211 17.7886 21.8973 17.664 21.9657H17.496C17.3715 21.8973 17.2512 21.8211 17.136 21.7377C15.1405 20.3519 12.7612 19.6259 10.332 19.6617H8.89202ZM36.744 27.1856C37.4832 26.61 38.3994 26.3088 39.336 26.3337H41.268V22.4817H39.336C37.6863 22.4617 36.0743 22.9752 34.74 23.9457C33.9892 24.4992 33.0809 24.7979 32.148 24.7979C31.2151 24.7979 30.3069 24.4992 29.556 23.9457C28.1879 22.9933 26.5609 22.4827 24.894 22.4827C23.2271 22.4827 21.6001 22.9933 20.232 23.9457C19.4812 24.4992 18.5729 24.7979 17.64 24.7979C16.7071 24.7979 15.7989 24.4992 15.048 23.9457C13.6973 22.9627 12.0622 22.4487 10.392 22.4817H8.40002V26.3337H10.332C11.2686 26.3088 12.1848 26.61 12.924 27.1856C14.2896 28.1387 15.9148 28.6497 17.58 28.6497C19.2453 28.6497 20.8704 28.1387 22.236 27.1856C22.9762 26.6118 23.8917 26.3109 24.828 26.3337C25.765 26.3068 26.6818 26.6082 27.42 27.1856C28.7881 28.1381 30.4151 28.6486 32.082 28.6486C33.7489 28.6486 35.3759 28.1381 36.744 27.1856ZM36.744 34.0737C37.4832 33.498 38.3994 33.1968 39.336 33.2217H41.268V29.3697H39.336C37.6863 29.3497 36.0743 29.8632 34.74 30.8337C33.9892 31.3872 33.0809 31.6859 32.148 31.6859C31.2151 31.6859 30.3069 31.3872 29.556 30.8337C28.1879 29.8813 26.5609 29.3709 24.894 29.3709C23.2271 29.3709 21.6001 29.8813 20.232 30.8337C19.4812 31.3872 18.5729 31.6859 17.64 31.6859C16.7071 31.6859 15.7989 31.3872 15.048 30.8337C13.6973 29.8509 12.0622 29.3367 10.392 29.3697H8.40002V33.2217H10.332C11.2686 33.1968 12.1848 33.498 12.924 34.0737C14.2896 35.0267 15.9148 35.5377 17.58 35.5377C19.2453 35.5377 20.8704 35.0267 22.236 34.0737C22.9762 33.4998 23.8917 33.1989 24.828 33.2217C25.765 33.1948 26.6818 33.4962 27.42 34.0737C28.7881 35.0261 30.4151 35.5366 32.082 35.5366C33.7489 35.5366 35.3759 35.0261 36.744 34.0737Z" fill="#9C9C9C"/>
</svg>
