<svg width="159" height="42" viewBox="0 0 159 42" fill="none" xmlns="http://www.w3.org/2000/svg">
<path d="M46.4119 13.512H50.2639V29.112H46.4119V13.512ZM51.7999 23.244C51.7999 19.38 54.1999 17.064 57.7999 17.064C61.3999 17.064 63.7999 19.38 63.7999 23.244C63.7999 27.108 61.4839 29.448 57.7999 29.448C54.1159 29.448 51.7999 27.192 51.7999 23.244ZM59.9839 23.244C59.9839 21.12 59.1559 19.872 57.8359 19.872C56.5159 19.872 55.6999 21.072 55.6999 23.244C55.6999 25.416 56.5159 26.604 57.8359 26.604C59.1559 26.604 60.0079 25.416 60.0079 23.256L59.9839 23.244ZM65.3359 29.916H69.0559C69.2252 30.3165 69.521 30.6507 69.898 30.8673C70.2751 31.084 70.7126 31.1713 71.1439 31.116C72.6199 31.116 73.3879 30.324 73.3879 29.148V26.988H73.3999C73.082 27.6606 72.5679 28.2211 71.9254 28.596C71.2828 28.9709 70.5418 29.1424 69.7999 29.088C66.9799 29.088 65.1079 26.94 65.1079 23.244C65.1079 19.548 66.8959 17.244 69.9079 17.244C70.6688 17.2033 71.4237 17.3995 72.0683 17.8057C72.7131 18.2119 73.216 18.8081 73.5079 19.512H73.3999V17.34H77.2159V29.028C77.2159 31.848 74.7199 33.612 71.0479 33.612C67.7119 33.6 65.5759 32.076 65.3599 29.928L65.3359 29.916ZM73.3999 23.244C73.3999 21.36 72.5359 20.172 71.1679 20.172C69.7999 20.172 68.9599 21.372 68.9599 23.244C68.9599 25.116 69.7879 26.22 71.1679 26.22C72.5479 26.22 73.3999 25.2 73.3999 23.244ZM78.7399 23.244C78.7399 19.38 81.1399 17.064 84.7399 17.064C88.3399 17.064 90.7399 19.38 90.7399 23.244C90.7399 27.108 88.4119 29.448 84.7399 29.448C81.0679 29.448 78.7639 27.192 78.7639 23.244H78.7399ZM86.9239 23.244C86.9239 21.12 86.0839 19.872 84.7759 19.872C83.4679 19.872 82.6399 21.072 82.6399 23.244C82.6399 25.416 83.4559 26.604 84.7759 26.604C86.0959 26.604 86.9479 25.416 86.9479 23.256L86.9239 23.244ZM92.2999 14.496C92.2831 14.1036 92.3841 13.7152 92.5899 13.3807C92.7957 13.0462 93.0969 12.781 93.4547 12.6191C93.8126 12.4571 94.2106 12.406 94.5977 12.4722C94.9849 12.5383 95.3433 12.7188 95.627 12.9904C95.9107 13.2621 96.1066 13.6122 96.1897 13.9961C96.2726 14.38 96.2389 14.7799 96.0927 15.1444C95.9465 15.5089 95.6947 15.8214 95.3695 16.0416C95.0443 16.2618 94.6606 16.3797 94.2679 16.38C94.0169 16.3864 93.7671 16.3428 93.5331 16.252C93.2991 16.161 93.0854 16.0245 92.9045 15.8503C92.7237 15.6762 92.5792 15.4679 92.4796 15.2374C92.3799 15.007 92.327 14.7591 92.3239 14.508L92.2999 14.496ZM92.2999 17.328H96.1999V29.16H92.3599L92.2999 17.328ZM110.228 23.244C110.228 27.096 108.5 29.328 105.56 29.328C104.807 29.3745 104.058 29.1887 103.415 28.7961C102.771 28.4033 102.263 27.8225 101.96 27.132H101.888V32.964H98.0359V17.364H101.864V19.476H101.936C102.229 18.772 102.731 18.1752 103.376 17.7672C104.02 17.3592 104.774 17.1598 105.536 17.196C108.56 17.172 110.3 19.392 110.3 23.256L110.228 23.244ZM106.304 23.244C106.304 21.372 105.428 20.16 104.072 20.16C102.716 20.16 101.864 21.36 101.852 23.244C101.84 25.128 102.716 26.316 104.072 26.316C105.428 26.316 106.376 25.2 106.376 23.256L106.304 23.244ZM116.804 17.052C120.032 17.052 122.036 18.576 122.06 21.024H118.544C118.544 20.172 117.836 19.644 116.78 19.644C115.724 19.644 115.22 20.052 115.22 20.664C115.22 21.276 115.664 21.468 116.552 21.648L119.024 22.152C121.424 22.656 122.384 23.616 122.384 25.404C122.384 27.804 120.164 29.436 116.864 29.436C113.564 29.436 111.416 27.852 111.26 25.44H114.992C115.1 26.316 115.796 26.832 116.924 26.832C118.052 26.832 118.58 26.472 118.58 25.836C118.58 25.2 118.22 25.092 117.296 24.9L115.064 24.432C112.748 23.94 111.536 22.728 111.536 20.916C111.608 18.564 113.624 17.064 116.876 17.064L116.804 17.052ZM135.284 29.148H131.552V26.928H131.48C131.271 27.6685 130.816 28.3157 130.19 28.7628C129.563 29.2101 128.804 29.4305 128.036 29.388C127.456 29.4069 126.878 29.3029 126.341 29.0829C125.805 28.8629 125.32 28.5318 124.921 28.1115C124.52 27.691 124.214 27.1907 124.021 26.6435C123.827 26.0963 123.752 25.5143 123.8 24.936V17.34H127.652V24.108C127.652 25.5 128.384 26.256 129.584 26.256C129.866 26.2539 130.143 26.1913 130.399 26.0728C130.654 25.9541 130.881 25.782 131.063 25.5682C131.247 25.3543 131.383 25.1037 131.461 24.8332C131.537 24.5626 131.557 24.2785 131.516 24V17.34H135.356L135.284 29.148ZM137.144 17.328H140.888V19.608H140.972C141.178 18.8776 141.622 18.2364 142.232 17.7847C142.843 17.3332 143.585 17.0965 144.344 17.112C145.106 17.0458 145.865 17.2661 146.473 17.7299C147.081 18.1937 147.494 18.8677 147.632 19.62H147.8C148.04 18.8637 148.522 18.2077 149.174 17.7543C149.824 17.3007 150.608 17.0749 151.4 17.112C151.927 17.092 152.452 17.1834 152.941 17.3803C153.43 17.5771 153.872 17.8751 154.238 18.2547C154.604 18.6341 154.885 19.0866 155.063 19.5825C155.243 20.0783 155.315 20.6063 155.276 21.132V29.16H151.4V22.116C151.4 20.916 150.836 20.244 149.744 20.244C149.501 20.2401 149.261 20.2885 149.039 20.386C148.817 20.4835 148.621 20.6279 148.46 20.8091C148.299 20.9904 148.179 21.2041 148.108 21.436C148.039 21.6678 148.019 21.912 148.052 22.152V29.16H144.38V22.08C144.38 20.88 143.792 20.244 142.736 20.244C142.491 20.2421 142.249 20.2925 142.025 20.3919C141.801 20.4913 141.602 20.6374 141.439 20.8204C141.277 21.0034 141.155 21.219 141.083 21.4528C141.01 21.6867 140.989 21.9333 141.02 22.176V29.16H137.168L137.144 17.328Z" fill="#9C9C9C"/>
<path d="M38.7919 14.532C38.792 12.1436 38.0708 9.8109 36.7227 7.83937C35.3746 5.86784 33.4624 4.34942 31.2368 3.48302C29.0111 2.61661 26.5756 2.44261 24.2494 2.9838C21.9231 3.52499 19.8146 4.75614 18.1999 6.51599H3.22388V38.124H34.8439V23.352C36.0849 22.242 37.078 20.8827 37.7583 19.3629C38.4386 17.8431 38.7908 16.1971 38.7919 14.532ZM32.7079 14.532C32.7103 15.6764 32.3731 16.7959 31.739 17.7487C31.1048 18.7014 30.2024 19.4447 29.1457 19.8842C28.0889 20.3239 26.9257 20.4402 25.8028 20.2183C24.6801 19.9965 23.6483 19.4466 22.8382 18.6382C22.0281 17.8297 21.4761 16.7991 21.2519 15.6768C21.0278 14.5545 21.1417 13.3909 21.5791 12.3333C22.0165 11.2757 22.7578 10.3717 23.7092 9.73561C24.6607 9.09953 25.7794 8.76 26.9239 8.75999C28.4558 8.75999 29.9252 9.36773 31.0095 10.4498C32.0939 11.532 32.7047 13.0001 32.7079 14.532ZM28.7599 32.04H9.30788V12.6H15.2359C15.1214 13.2378 15.0611 13.8841 15.0559 14.532C15.0591 17.6786 16.3105 20.6954 18.5355 22.9205C20.7604 25.1454 23.7772 26.3969 26.9239 26.4C27.5391 26.3967 28.153 26.3445 28.7599 26.244V32.04Z" fill="#9C9C9C"/>
</svg>
