<svg width="196" height="42" viewBox="0 0 196 42" fill="none" xmlns="http://www.w3.org/2000/svg">
<path d="M31.5225 18.7194C30.993 19.2532 30.5875 19.8975 30.3349 20.6062C30.0823 21.315 29.9889 22.0709 30.0611 22.82L30.0359 22.7948C30.1103 23.6767 29.9915 24.564 29.6882 25.3952C29.3849 26.2262 28.9043 26.981 28.2799 27.6068C27.6554 28.2324 26.9022 28.7142 26.0727 29.018C25.2433 29.3219 24.3577 29.4409 23.4778 29.3664L23.5029 29.3916C22.4503 29.2935 21.3931 29.5229 20.4753 30.0489C19.5577 30.5749 18.8242 31.3716 18.375 32.3306C17.9258 33.2896 17.7826 34.364 17.9651 35.4076C18.1477 36.451 18.6469 37.4126 19.3947 38.1614C20.1426 38.9101 21.1028 39.4095 22.1442 39.5913C23.1858 39.7733 24.2578 39.6288 25.2144 39.1779C26.171 38.7268 26.9654 37.9913 27.4895 37.0712C28.0136 36.1511 28.2417 35.0916 28.1428 34.0368L28.1694 34.062C28.095 33.1803 28.2137 32.2928 28.517 31.4617C28.8203 30.6306 29.301 29.8759 29.9254 29.2501C30.55 28.6244 31.3032 28.1427 32.1325 27.8389C32.962 27.5349 33.8475 27.4159 34.7275 27.4904L34.701 27.4652C35.5608 27.5426 36.4263 27.4014 37.2173 27.0545C38.008 26.7075 38.6988 26.1662 39.2252 25.4806C39.7517 24.795 40.097 23.9872 40.2289 23.1324C40.361 22.2774 40.2755 21.4029 39.9804 20.5898C39.6853 19.7768 39.1902 19.0516 38.5409 18.4814C37.8917 17.9112 37.1093 17.5144 36.2662 17.328C35.4232 17.1415 34.5468 17.1712 33.7183 17.4143C32.8897 17.6577 32.136 18.1065 31.5267 18.7194H31.5225Z" fill="#9C9C9C"/>
<path d="M21.2157 26.0904L21.1892 26.0652C21.9371 26.1407 22.6924 26.0487 23.4006 25.7959C24.1086 25.543 24.7519 25.1358 25.2836 24.6033C25.8153 24.0709 26.2224 23.4266 26.4751 22.7173C26.728 22.0079 26.8204 21.2512 26.7456 20.5016L26.7722 20.5268C26.6978 19.645 26.8166 18.7576 27.1198 17.9265C27.4231 17.0954 27.9038 16.3407 28.5282 15.7149C29.1527 15.0892 29.9059 14.6075 30.7353 14.3037C31.5648 13.9997 32.4503 13.8808 33.3303 13.9552L33.3038 13.93C34.3565 14.0291 35.414 13.8003 36.3322 13.275C37.2506 12.7496 37.9846 11.9532 38.4345 10.9944C38.8844 10.0356 39.0282 8.96101 38.8463 7.9173C38.6644 6.87358 38.1656 5.91153 37.4178 5.16234C36.6702 4.41315 35.7101 3.9133 34.6685 3.73099C33.627 3.54867 32.5546 3.69274 31.5977 4.14357C30.6408 4.59439 29.8461 5.33002 29.3218 6.25011C28.7975 7.17019 28.5692 8.22995 28.6681 9.28482L28.6429 9.25822C28.7174 10.1401 28.5989 11.0276 28.2957 11.8588C27.9926 12.69 27.5118 13.4449 26.8874 14.0707C26.2629 14.6964 25.5096 15.1781 24.6801 15.4819C23.8505 15.7857 22.9648 15.9044 22.0847 15.8298L22.1099 15.8564C21.362 15.781 20.6066 15.8729 19.8985 16.1258C19.1904 16.3785 18.5472 16.7859 18.0154 17.3183C17.4837 17.8507 17.0767 18.495 16.8238 19.2044C16.5711 19.9138 16.4787 20.6705 16.5535 21.42L16.5283 21.3948C16.6024 22.2765 16.4835 23.1639 16.1801 23.9949C15.8767 24.8258 15.3961 25.5805 14.7717 26.2062C14.1472 26.8319 13.3941 27.3135 12.5648 27.6175C11.7355 27.9215 10.85 28.0406 9.97011 27.9664L9.99526 27.9916C8.94254 27.8925 7.88495 28.1213 6.96673 28.6467C6.04853 29.1721 5.3144 29.9684 4.86451 30.9273C4.4146 31.8861 4.27081 32.9606 4.45276 34.0043C4.63471 35.048 5.13354 36.0101 5.88119 36.7593C6.62886 37.5085 7.58895 38.0083 8.63053 38.1906C9.67212 38.3729 10.7445 38.2288 11.7013 37.778C12.6582 37.3272 13.453 36.5917 13.9773 35.6716C14.5016 34.7514 14.7299 33.6917 14.631 32.6368L14.6575 32.662C14.5832 31.7802 14.702 30.8928 15.0053 30.0617C15.3085 29.2306 15.7892 28.4759 16.4136 27.8501C17.0381 27.2244 17.7913 26.7427 18.6207 26.4389C19.4501 26.1349 20.3357 26.0159 21.2157 26.0904Z" fill="#9C9C9C"/>
<path d="M11.8521 23.2806C12.3817 22.7469 12.7871 22.1027 13.0395 21.3938C13.2918 20.685 13.3849 19.929 13.3121 19.18L13.3387 19.2052C13.2643 18.3232 13.383 17.4355 13.6865 16.6042C13.99 15.7728 14.4709 15.018 15.0957 14.3922C15.7205 13.7664 16.474 13.2848 17.3038 12.9811C18.1335 12.6773 19.0195 12.5588 19.8997 12.6336L19.8731 12.6084C20.9254 12.7072 21.9827 12.4783 22.9004 11.953C23.8182 11.4277 24.5519 10.6315 25.0016 9.67295C25.4512 8.71442 25.5948 7.64027 25.4129 6.59695C25.231 5.55363 24.7322 4.59194 23.9849 3.84302C23.2376 3.09411 22.2777 2.59442 21.2366 2.41211C20.1954 2.22979 19.1234 2.37374 18.1669 2.82429C17.2103 3.27483 16.4157 4.01007 15.8915 4.92973C15.3672 5.84939 15.1387 6.90872 15.2374 7.96323L15.2122 7.93803C15.2866 8.81982 15.1678 9.70723 14.8645 10.5383C14.5612 11.3694 14.0806 12.1242 13.4561 12.7499C12.8317 13.3757 12.0784 13.8573 11.249 14.1612C10.4196 14.4651 9.53404 14.5841 8.65405 14.5096L8.6792 14.5348C7.81935 14.4575 6.95395 14.5991 6.16319 14.9461C5.37244 15.2932 4.6819 15.8347 4.15558 16.5204C3.62927 17.206 3.2842 18.0138 3.15234 18.8687C3.02049 19.7236 3.10612 20.5981 3.40129 21.4109C3.69647 22.2239 4.19166 22.949 4.84095 23.519C5.49025 24.0893 6.27265 24.4859 7.11565 24.6724C7.95865 24.8587 8.83498 24.8289 9.66344 24.5857C10.4919 24.3424 11.2457 23.8935 11.8549 23.2806H11.8521Z" fill="#9C9C9C"/>
<path d="M55.1315 9.31702H59.281V29.5512H55.1315V9.31702Z" fill="#9C9C9C"/>
<path d="M61.6309 22.6226C61.6252 21.1686 62.0502 19.7453 62.8522 18.5335C63.6541 17.3217 64.797 16.3755 66.136 15.8151C67.475 15.2546 68.9499 15.1049 70.3738 15.385C71.7978 15.6652 73.1068 16.3624 74.1349 17.3886C75.1631 18.4146 75.8642 19.7235 76.1495 21.1493C76.4348 22.575 76.2913 24.0536 75.7373 25.3976C75.1834 26.7414 74.2438 27.8905 73.0376 28.6989C71.8313 29.5074 70.413 29.939 68.9617 29.939C67.9986 29.9501 67.0428 29.7685 66.1503 29.4051C65.2578 29.0416 64.4466 28.5036 63.7641 27.8225C63.0814 27.1413 62.5413 26.3305 62.1751 25.4377C61.8088 24.545 61.6238 23.5879 61.6309 22.6226ZM72.143 22.6226C72.1257 21.9958 71.9244 21.3881 71.5643 20.8753C71.2042 20.3626 70.7012 19.9675 70.1183 19.7397C69.5353 19.5118 68.8983 19.4611 68.2868 19.5941C67.6753 19.7271 67.1164 20.0377 66.6801 20.4872C66.2439 20.9366 65.9494 21.505 65.8338 22.1213C65.7181 22.7374 65.7862 23.3741 66.0297 23.9518C66.2732 24.5294 66.6812 25.0222 67.2026 25.3687C67.7242 25.7152 68.3361 25.9 68.9617 25.9C69.3902 25.9115 69.8165 25.8338 70.2137 25.672C70.6108 25.5101 70.9701 25.2676 71.269 24.9598C71.5678 24.6518 71.7999 24.2851 71.9502 23.8829C72.1007 23.4807 72.1664 23.0516 72.143 22.6226Z" fill="#9C9C9C"/>
<path d="M92.8305 15.6926V28.8526C92.8305 33.509 89.2064 35.4774 85.5277 35.4774C84.2325 35.5746 82.9356 35.3124 81.7791 34.7197C80.6229 34.127 79.6517 33.2266 78.9723 32.1174L82.5126 30.0664C82.7982 30.6446 83.2533 31.1216 83.8167 31.4337C84.3803 31.7456 85.0255 31.8777 85.666 31.8122C86.0754 31.8691 86.4923 31.8329 86.8858 31.7065C87.2793 31.5801 87.6395 31.3666 87.9396 31.082C88.2397 30.7972 88.472 30.4486 88.6196 30.0617C88.7669 29.6748 88.8256 29.2597 88.7914 28.847V27.58C88.3055 28.1757 87.6871 28.6491 86.9856 28.962C86.2841 29.2749 85.5193 29.4186 84.7523 29.3818C82.9273 29.3241 81.1964 28.5572 79.9258 27.2432C78.6553 25.9293 77.9448 24.1714 77.9448 22.3419C77.9448 20.5124 78.6553 18.7546 79.9258 17.4407C81.1964 16.1266 82.9273 15.3597 84.7523 15.302C85.5193 15.2652 86.2841 15.409 86.9856 15.7219C87.6871 16.0348 88.3055 16.5081 88.7914 17.1038V15.6898L92.8305 15.6926ZM88.7928 22.344C88.8207 21.674 88.6478 21.0108 88.2964 20.44C87.945 19.8691 87.4311 19.4168 86.821 19.1411C86.2109 18.8653 85.5324 18.7789 84.8728 18.8929C84.2132 19.0068 83.6028 19.316 83.12 19.7806C82.6373 20.2451 82.3043 20.8438 82.1639 21.4995C82.0236 22.1553 82.0823 22.8382 82.3327 23.4602C82.5829 24.0823 83.0132 24.6151 83.5682 24.99C84.1231 25.3649 84.7774 25.5649 85.4466 25.564C85.8827 25.5945 86.3201 25.5332 86.731 25.384C87.1419 25.2347 87.5171 25.0008 87.8323 24.6976C88.1475 24.3942 88.3959 24.0281 88.5613 23.6226C88.7267 23.2173 88.8057 22.7818 88.7928 22.344Z" fill="#9C9C9C"/>
<path d="M95.1805 22.6226C95.1748 21.1686 95.5996 19.7453 96.4017 18.5335C97.2037 17.3217 98.3466 16.3755 99.6856 15.8151C101.025 15.2546 102.499 15.1049 103.923 15.385C105.347 15.6652 106.656 16.3624 107.685 17.3886C108.713 18.4146 109.414 19.7235 109.699 21.1493C109.984 22.575 109.841 24.0536 109.287 25.3976C108.733 26.7414 107.793 27.8905 106.587 28.6989C105.381 29.5074 103.963 29.939 102.511 29.939C101.548 29.9501 100.592 29.7685 99.6998 29.4051C98.8073 29.0416 97.9962 28.5036 97.3136 27.8225C96.631 27.1413 96.0909 26.3305 95.7247 25.4377C95.3583 24.545 95.1734 23.5879 95.1805 22.6226ZM105.693 22.6226C105.675 21.9958 105.474 21.3881 105.114 20.8753C104.754 20.3626 104.251 19.9675 103.668 19.7397C103.085 19.5118 102.448 19.4611 101.836 19.5941C101.225 19.7271 100.666 20.0377 100.23 20.4872C99.7934 20.9366 99.4989 21.505 99.3832 22.1213C99.2676 22.7374 99.3357 23.3741 99.5793 23.9518C99.8228 24.5294 100.231 25.0222 100.752 25.3687C101.274 25.7152 101.886 25.9 102.511 25.9C102.94 25.9115 103.366 25.8338 103.763 25.672C104.16 25.5101 104.52 25.2676 104.819 24.9598C105.117 24.6518 105.349 24.2851 105.5 23.8829C105.65 23.4807 105.716 23.0516 105.693 22.6226Z" fill="#9C9C9C"/>
<path d="M111.777 11.9784C111.777 11.485 111.923 11.0026 112.197 10.5924C112.47 10.1821 112.859 9.86231 113.314 9.67349C113.769 9.48466 114.27 9.43526 114.753 9.53152C115.236 9.62778 115.679 9.86539 116.027 10.2143C116.376 10.5632 116.613 11.0077 116.709 11.4917C116.805 11.9756 116.756 12.4772 116.567 12.9331C116.379 13.389 116.06 13.7786 115.65 14.0528C115.241 14.3269 114.759 14.4732 114.267 14.4732C113.609 14.4666 112.979 14.2017 112.514 13.7352C112.048 13.2688 111.784 12.638 111.777 11.9784ZM112.196 15.6926H116.347V29.5526H112.191L112.196 15.6926Z" fill="#9C9C9C"/>
<path d="M134.264 22.6226C134.312 23.5386 134.179 24.455 133.872 25.3193C133.565 26.1835 133.091 26.9784 132.477 27.6584C131.862 28.3382 131.12 28.8898 130.292 29.2813C129.464 29.6726 128.567 29.8961 127.653 29.939C126.884 29.981 126.115 29.8511 125.403 29.5586C124.69 29.266 124.051 28.8183 123.533 28.2478V35.0952H119.383V15.6926H123.533V16.9946C124.051 16.4245 124.69 15.9771 125.403 15.6849C126.116 15.3926 126.884 15.2628 127.653 15.3048C128.567 15.3475 129.465 15.5709 130.293 15.9624C131.121 16.3538 131.863 16.9054 132.478 17.5855C133.092 18.2656 133.566 19.0608 133.873 19.9253C134.179 20.7897 134.312 21.7064 134.264 22.6226ZM130.115 22.6226C130.098 21.974 129.892 21.3445 129.52 20.8129C129.149 20.2815 128.629 19.8716 128.026 19.6347C127.423 19.3977 126.764 19.3441 126.131 19.4807C125.498 19.6172 124.919 19.9378 124.467 20.4023C124.015 20.867 123.71 21.4547 123.59 22.0924C123.469 22.73 123.539 23.3888 123.791 23.9867C124.043 24.5847 124.465 25.0948 125.004 25.4537C125.544 25.8123 126.177 26.0037 126.824 26.0036C127.269 26.0235 127.713 25.9488 128.127 25.7848C128.54 25.6208 128.915 25.3709 129.225 25.0517C129.536 24.7324 129.776 24.351 129.929 23.9324C130.082 23.5138 130.146 23.0674 130.115 22.6226Z" fill="#9C9C9C"/>
<path d="M147.069 25.3932C147.069 28.581 144.304 29.939 141.317 29.939C140.11 30.0485 138.898 29.7928 137.838 29.2047C136.778 28.6167 135.918 27.7235 135.369 26.6406L138.964 24.5896C139.11 25.0901 139.422 25.5256 139.849 25.8231C140.276 26.1208 140.793 26.2626 141.311 26.2248C142.306 26.2248 142.805 25.9196 142.805 25.3666C142.805 23.8406 135.999 24.6456 135.999 19.8506C135.999 16.828 138.545 15.3048 141.422 15.3048C142.503 15.2705 143.573 15.5275 144.522 16.049C145.471 16.5707 146.263 17.3376 146.815 18.27L143.274 20.1824C143.119 19.8194 142.861 19.5101 142.531 19.2933C142.201 19.0764 141.816 18.9616 141.422 18.963C140.702 18.963 140.259 19.243 140.259 19.7386C140.265 21.3192 147.069 20.265 147.069 25.3932Z" fill="#9C9C9C"/>
<path d="M162.227 15.6926V29.5526H158.077V28.2492C157.598 28.8243 156.99 29.2775 156.303 29.5715C155.615 29.8655 154.869 29.9919 154.123 29.9404C151.329 29.9404 148.954 27.9454 148.954 24.2004V15.6926H153.103V23.5914C153.068 23.9215 153.106 24.2553 153.214 24.5693C153.32 24.8835 153.494 25.1705 153.724 25.4103C153.953 25.6501 154.231 25.837 154.54 25.9581C154.847 26.0792 155.178 26.1316 155.509 26.1114C157.031 26.1114 158.081 25.2252 158.081 23.2568V15.6968L162.227 15.6926Z" fill="#9C9C9C"/>
<path d="M186.02 21.042V29.5512H181.87V21.4018C181.87 20.0158 181.207 19.1296 179.88 19.1296C178.496 19.1296 177.721 20.0998 177.721 21.735V29.5512H173.573V21.4018C173.573 20.0158 172.909 19.1296 171.581 19.1296C170.197 19.1296 169.423 20.0998 169.423 21.735V29.5512H165.274V15.6912H169.423V16.9652C169.854 16.4 170.418 15.9517 171.065 15.6615C171.713 15.3711 172.423 15.2481 173.13 15.3034C173.84 15.2685 174.547 15.4187 175.182 15.7392C175.817 16.0595 176.357 16.5394 176.753 17.1318C177.212 16.512 177.822 16.0192 178.523 15.6994C179.224 15.3797 179.995 15.2435 180.764 15.3034C183.94 15.3048 186.02 17.577 186.02 21.042Z" fill="#9C9C9C"/>
<path d="M189.53 15.6072C191.23 15.6072 192.609 14.2257 192.609 12.5216C192.609 10.8174 191.23 9.43597 189.53 9.43597C187.829 9.43597 186.45 10.8174 186.45 12.5216C186.45 14.2257 187.829 15.6072 189.53 15.6072Z" fill="#9C9C9C"/>
</svg>
