<svg width="25" height="24" viewBox="0 0 25 24" fill="none" xmlns="http://www.w3.org/2000/svg">
<path d="M21.478 13.21C21.519 13.0193 21.5034 12.8207 21.4331 12.6388C21.3627 12.4568 21.2407 12.2994 21.082 12.186L7.08198 2.18597C6.92444 2.07268 6.73732 2.00773 6.54347 1.99905C6.34963 1.99036 6.15745 2.03832 5.99041 2.13706C5.82337 2.2358 5.6887 2.38105 5.60285 2.55506C5.517 2.72908 5.48369 2.92433 5.50698 3.11697L7.50698 20.117C7.53 20.3119 7.60986 20.4957 7.7366 20.6455C7.86335 20.7953 8.03138 20.9046 8.21976 20.9596C8.40814 21.0146 8.60855 21.013 8.79601 20.9549C8.98347 20.8968 9.14969 20.7848 9.27398 20.633L12.886 16.217L16.263 21.677L17.964 20.625L14.607 15.197L20.696 13.979C20.8873 13.9415 21.0635 13.8487 21.2025 13.7119C21.3415 13.5752 21.4373 13.4007 21.478 13.21Z" fill="white"/>
</svg>
