<svg width="134" height="99" viewBox="0 0 134 99" fill="none" xmlns="http://www.w3.org/2000/svg">
<path d="M46.8051 8.87154L46.8151 8.88154L46.8253 8.89135C51.6777 13.5623 54.1509 19.7785 54.1509 27.6989C54.1509 31.4156 53.6863 35.1366 52.7539 38.8644C51.8231 42.5865 49.7482 48.2605 46.4851 55.9355L46.4778 55.9528L46.4709 55.9702L30.4104 96.5283H4.85514L17.0163 52.5991L17.3747 51.3047L16.1276 50.8061C11.6074 48.9987 8.00886 46.1238 5.29791 42.1622C2.77902 38.0113 1.5 33.2061 1.5 27.6989C1.5 19.7785 3.97315 13.5623 8.82561 8.89135L8.82635 8.89064C13.9056 3.99464 20.2501 1.52832 27.9696 1.52832C35.6893 1.52832 41.9256 3.99398 46.8051 8.87154ZM125.154 8.87154L125.164 8.88154L125.174 8.89135C130.027 13.5623 132.5 19.7785 132.5 27.6989C132.5 31.4156 132.035 35.1366 131.103 38.8644C130.172 42.5865 128.097 48.2605 124.834 55.9355L124.827 55.9528L124.82 55.9702L108.76 96.5283H83.2043L95.3655 52.5991L95.7238 51.3047L94.4767 50.8061C89.9565 48.9987 86.358 46.1238 83.647 42.1622C81.1282 38.0113 79.8491 33.2061 79.8491 27.6989C79.8491 19.7785 82.3223 13.5623 87.1747 8.89135L87.1755 8.89064C92.2548 3.99464 98.5992 1.52832 106.319 1.52832C114.038 1.52832 120.275 3.99398 125.154 8.87154Z" stroke="#99E0FF" stroke-width="3"/>
</svg>
