<svg width="18" height="18" viewBox="0 0 18 18" fill="none" xmlns="http://www.w3.org/2000/svg">
<path d="M14.2673 12.7327C13.916 12.3963 13.5741 12.0501 13.242 11.6948C12.963 11.4113 12.795 11.205 12.795 11.205L10.695 10.2023C11.5357 9.24873 11.9998 8.02124 12 6.75C12 3.85575 9.645 1.5 6.75 1.5C3.855 1.5 1.5 3.85575 1.5 6.75C1.5 9.64425 3.855 12 6.75 12C8.07225 12 9.2775 11.505 10.2022 10.6958L11.205 12.7958C11.205 12.7958 11.4113 12.9638 11.6947 13.2428C11.985 13.515 12.3667 13.8833 12.7327 14.268L13.7512 15.312L14.2042 15.7965L15.795 14.2058L15.3105 13.7528C15.0262 13.4738 14.6468 13.1033 14.2673 12.7327ZM6.75 10.5C4.68225 10.5 3 8.81775 3 6.75C3 4.68225 4.68225 3 6.75 3C8.81775 3 10.5 4.68225 10.5 6.75C10.5 8.81775 8.81775 10.5 6.75 10.5Z" fill="#9D9D9D"/>
</svg>
