<svg width="25" height="24" viewBox="0 0 25 24" fill="none" xmlns="http://www.w3.org/2000/svg">
<path d="M19.523 16.977C19.0546 16.5284 18.5988 16.0669 18.156 15.593C17.784 15.215 17.56 14.94 17.56 14.94L14.76 13.603C15.881 12.3316 16.4997 10.695 16.5 9C16.5 5.141 13.36 2 9.5 2C5.64 2 2.5 5.141 2.5 9C2.5 12.859 5.64 16 9.5 16C11.263 16 12.87 15.34 14.103 14.261L15.44 17.061C15.44 17.061 15.715 17.285 16.093 17.657C16.48 18.02 16.989 18.511 17.477 19.024L18.835 20.416L19.439 21.062L21.56 18.941L20.914 18.337C20.535 17.965 20.029 17.471 19.523 16.977ZM9.5 14C6.743 14 4.5 11.757 4.5 9C4.5 6.243 6.743 4 9.5 4C12.257 4 14.5 6.243 14.5 9C14.5 11.757 12.257 14 9.5 14Z" fill="white"/>
</svg>
