<svg width="58" height="58" viewBox="0 0 58 58" fill="none" xmlns="http://www.w3.org/2000/svg">
<path d="M14.9688 35.3897C14.9688 38.1931 12.6899 40.4816 9.88655 40.4816C8.53793 40.4778 7.24576 39.9399 6.29282 38.9856C5.33988 38.0313 4.80379 36.7383 4.80188 35.3897C4.80443 34.0415 5.3408 32.7492 6.29367 31.7954C7.24654 30.8416 8.53835 30.3041 9.88655 30.3002H14.9688V35.3897ZM17.5329 35.3897C17.5329 32.5864 19.8142 30.3002 22.6175 30.3002C23.9653 30.3047 25.2565 30.8426 26.2089 31.7963C27.1612 32.75 27.6973 34.0419 27.6998 35.3897V48.1352C27.6973 49.483 27.1612 50.775 26.2089 51.7287C25.2565 52.6824 23.9653 53.2202 22.6175 53.2247C21.269 53.2222 19.9764 52.685 19.0233 51.7309C18.0701 50.7769 17.5342 49.4838 17.5329 48.1352V35.3897ZM22.6175 14.9568C19.8142 14.9568 17.5329 12.6658 17.5329 9.86489C17.5329 7.06397 19.8142 4.77539 22.6175 4.77539C23.9653 4.77986 25.2565 5.31774 26.2089 6.27144C27.1612 7.22515 27.6973 8.51711 27.6998 9.86489V14.9568H22.6175ZM22.6175 17.5185C23.9657 17.5229 25.2573 18.0612 26.2097 19.0154C27.1621 19.9696 27.6979 21.2622 27.6998 22.6104C27.6973 23.9582 27.1612 25.2501 26.2089 26.2038C25.2565 27.1575 23.9653 27.6954 22.6175 27.6999H9.88896C8.54077 27.6961 7.24896 27.1585 6.29609 26.2047C5.34322 25.2509 4.80685 23.9586 4.8043 22.6104C4.80621 21.2618 5.3423 19.9688 6.29523 19.0145C7.24817 18.0602 8.54035 17.5223 9.88896 17.5185H22.6175ZM43.0311 22.6104C43.0311 19.8071 45.3101 17.5185 48.1134 17.5185C49.462 17.5223 50.7542 18.0602 51.7071 19.0145C52.66 19.9688 53.1961 21.2618 53.1981 22.6104C53.1955 23.9586 52.6591 25.2509 51.7063 26.2047C50.7534 27.1585 49.4616 27.6961 48.1134 27.6999H43.0311V22.6104ZM40.4671 22.6104C40.4671 25.4137 38.1857 27.6999 35.3824 27.6999C34.0346 27.6954 32.7434 27.1575 31.7911 26.2038C30.8387 25.2501 30.3027 23.9582 30.3001 22.6104V9.86489C30.3027 8.51711 30.8387 7.22515 31.7911 6.27144C32.7434 5.31774 34.0346 4.77986 35.3824 4.77539C38.1857 4.77539 40.4671 7.06156 40.4671 9.86489V22.6104ZM35.3824 43.0433C38.1857 43.0433 40.4671 45.3343 40.4671 48.1352C40.4671 50.9361 38.1857 53.2247 35.3824 53.2247C34.0346 53.2202 32.7434 52.6824 31.7911 51.7287C30.8387 50.775 30.3027 49.483 30.3001 48.1352V43.0433H35.3824ZM35.3824 40.4816C34.0342 40.4772 32.7426 39.9389 31.7902 38.9847C30.8378 38.0305 30.302 36.7379 30.3001 35.3897C30.3027 34.0419 30.8387 32.75 31.7911 31.7963C32.7434 30.8426 34.0346 30.3047 35.3824 30.3002H48.1134C49.4616 30.3041 50.7534 30.8416 51.7063 31.7954C52.6591 32.7492 53.1955 34.0415 53.1981 35.3897C53.1961 36.7383 52.66 38.0313 51.7071 38.9856C50.7542 39.9399 49.462 40.4778 48.1134 40.4816H35.3824Z" fill="#151E2C"/>
</svg>
